<svg width="16" height="16" viewBox="0 0 16 16" fill="none" xmlns="http://www.w3.org/2000/svg">
<path d="M8 2.5C7.40625 2.5 6.82552 2.58594 6.25781 2.75781C5.6901 2.92969 5.16146 3.18229 4.67188 3.51563C4.17188 3.83854 3.73438 4.22917 3.35938 4.6875C2.98438 5.14583 2.68229 5.65104 2.45313 6.20313C2.22396 6.75521 2.08073 7.32552 2.02344 7.91406C1.96615 8.5026 1.99479 9.08854 2.10938 9.67188C2.22396 10.2552 2.42188 10.8073 2.70313 11.3281C2.98438 11.849 3.33333 12.3229 3.75 12.75C4.17708 13.1667 4.65104 13.5156 5.17188 13.7969C5.69271 14.0781 6.24479 14.276 6.82813 14.3906C7.41146 14.5052 7.9974 14.5339 8.58594 14.4766C9.17448 14.4193 9.74479 14.276 10.2969 14.0469C10.849 13.8177 11.3542 13.5156 11.8125 13.1406C12.2708 12.7656 12.6615 12.3281 12.9844 11.8281C13.3177 11.3385 13.5703 10.8099 13.7422 10.2422C13.9141 9.67448 14 9.09375 14 8.5C14 7.70833 13.8464 6.94531 13.5391 6.21094C13.2318 5.47656 12.7969 4.82813 12.2344 4.26563C11.6719 3.70313 11.0234 3.26823 10.2891 2.96094C9.55469 2.65365 8.79167 2.5 8 2.5ZM8 13.5C7.51042 13.5 7.02865 13.4271 6.55469 13.2813C6.08073 13.1354 5.63542 12.9271 5.21875 12.6563C4.8125 12.3854 4.45313 12.0573 4.14063 11.6719C3.82813 11.2865 3.57292 10.8646 3.375 10.4063C3.1875 9.95833 3.07031 9.48698 3.02344 8.99219C2.97656 8.4974 3 8.01042 3.09375 7.53125C3.1875 7.04167 3.35156 6.57813 3.58594 6.14063C3.82031 5.70313 4.11458 5.3125 4.46875 4.96875C4.8125 4.61458 5.20313 4.32031 5.64063 4.08594C6.07813 3.85156 6.54167 3.6875 7.03125 3.59375C7.51042 3.5 7.9974 3.47656 8.49219 3.52344C8.98698 3.57031 9.45833 3.6875 9.90625 3.875C10.3646 4.07292 10.7865 4.32813 11.1719 4.64063C11.5573 4.95313 11.8854 5.3125 12.1562 5.71875C12.4271 6.13542 12.6354 6.58073 12.7812 7.05469C12.9271 7.52865 13 8.01042 13 8.5C13 9.16667 12.8724 9.80469 12.6172 10.4141C12.362 11.0234 12 11.5625 11.5312 12.0313C11.0625 12.5 10.5234 12.862 9.91406 13.1172C9.30469 13.3724 8.66667 13.5 8 13.5ZM10.8594 5.64063C10.8802 5.67188 10.8984 5.70052 10.9141 5.72656C10.9297 5.75261 10.9479 5.78125 10.9688 5.8125C10.9792 5.84375 10.987 5.875 10.9922 5.90625C10.9974 5.9375 11 5.96875 11 6C11 6.03125 10.9974 6.0625 10.9922 6.09375C10.987 6.125 10.9792 6.15625 10.9688 6.1875C10.9479 6.21875 10.9297 6.2474 10.9141 6.27344C10.8984 6.29948 10.8802 6.32813 10.8594 6.35938L8.35938 8.85938C8.32813 8.88021 8.29948 8.89844 8.27344 8.91406C8.2474 8.92969 8.21875 8.94792 8.1875 8.96875C8.15625 8.97917 8.125 8.98698 8.09375 8.99219C8.0625 8.9974 8.03125 9 8 9C7.96875 9 7.9375 8.9974 7.90625 8.99219C7.875 8.98698 7.84375 8.97917 7.8125 8.96875C7.78125 8.94792 7.7526 8.92969 7.72656 8.91406C7.70052 8.89844 7.67188 8.88021 7.64063 8.85938C7.61979 8.82813 7.60156 8.79948 7.58594 8.77344C7.57031 8.7474 7.55208 8.71875 7.53125 8.6875C7.52083 8.65625 7.51302 8.625 7.50781 8.59375C7.5026 8.5625 7.5 8.53125 7.5 8.5C7.5 8.46875 7.5026 8.4375 7.50781 8.40625C7.51302 8.375 7.52083 8.34375 7.53125 8.3125C7.55208 8.28125 7.57031 8.2526 7.58594 8.22656C7.60156 8.20052 7.61979 8.17188 7.64063 8.14063L10.1406 5.64063C10.1719 5.61979 10.2005 5.60156 10.2266 5.58594C10.2526 5.57031 10.2812 5.55208 10.3125 5.53125C10.3438 5.52083 10.375 5.51302 10.4062 5.50781C10.4375 5.50261 10.4688 5.5 10.5 5.5C10.5312 5.5 10.5625 5.50261 10.5938 5.50781C10.625 5.51302 10.6562 5.52083 10.6875 5.53125C10.7188 5.55208 10.7474 5.57031 10.7734 5.58594C10.7995 5.60156 10.8281 5.61979 10.8594 5.64063ZM6 1C6 0.937501 6.01302 0.875001 6.03906 0.812501C6.0651 0.750001 6.09896 0.692709 6.14063 0.640626C6.19271 0.598959 6.25 0.565105 6.3125 0.539063C6.375 0.513022 6.4375 0.500001 6.5 0.500001H9.5C9.5625 0.500001 9.625 0.513022 9.6875 0.539063C9.75 0.565105 9.80729 0.598959 9.85938 0.640626C9.90104 0.692709 9.9349 0.750001 9.96094 0.812501C9.98698 0.875001 10 0.937501 10 1C10 1.0625 9.98698 1.125 9.96094 1.1875C9.9349 1.25 9.90104 1.30729 9.85938 1.35938C9.80729 1.40104 9.75 1.4349 9.6875 1.46094C9.625 1.48698 9.5625 1.5 9.5 1.5H6.5C6.4375 1.5 6.375 1.48698 6.3125 1.46094C6.25 1.4349 6.19271 1.40104 6.14063 1.35938C6.09896 1.30729 6.0651 1.25 6.03906 1.1875C6.01302 1.125 6 1.0625 6 1Z" fill="white"/>
</svg>
