<svg width="28" height="28" viewBox="0 0 28 28" fill="none" xmlns="http://www.w3.org/2000/svg">
<path d="M25.375 14C25.375 15.3854 25.1289 16.7298 24.6367 18.0332C24.1445 19.3366 23.4336 20.5078 22.5039 21.5469C21.5924 22.5859 20.5169 23.429 19.2773 24.0762C18.0378 24.7233 16.7344 25.1289 15.3672 25.293C15.3307 25.293 15.2988 25.293 15.2715 25.293C15.2441 25.293 15.2122 25.2839 15.1758 25.2656C15.1576 25.2656 15.1348 25.2565 15.1074 25.2383C15.0801 25.2201 15.0482 25.2018 15.0117 25.1836C14.9935 25.1654 14.9753 25.1426 14.957 25.1152C14.9388 25.0879 14.9206 25.0651 14.9023 25.0469C14.9023 25.0104 14.8978 24.9785 14.8887 24.9512C14.8796 24.9238 14.875 24.8919 14.875 24.8555V16.625H17.5C17.5547 16.625 17.6139 16.6204 17.6777 16.6113C17.7415 16.6022 17.8008 16.5794 17.8555 16.543C17.9102 16.5247 17.9603 16.4974 18.0059 16.4609C18.0514 16.4245 18.0924 16.388 18.1289 16.3516C18.1836 16.2969 18.2246 16.2467 18.252 16.2012C18.2793 16.1556 18.3021 16.1055 18.3203 16.0508C18.3385 15.9961 18.3522 15.9368 18.3613 15.873C18.3704 15.8092 18.375 15.75 18.375 15.6953C18.3568 15.5859 18.3249 15.4811 18.2793 15.3809C18.2337 15.2806 18.1654 15.1849 18.0742 15.0938C18.0013 15.0208 17.9102 14.9661 17.8008 14.9297C17.6914 14.8932 17.582 14.875 17.4727 14.875H14.875V12.25C14.875 12.013 14.9206 11.7897 15.0117 11.5801C15.1029 11.3704 15.2305 11.1836 15.3945 11.0195C15.5586 10.8555 15.7454 10.7279 15.9551 10.6367C16.1647 10.5456 16.388 10.5 16.625 10.5H18.375C18.4297 10.5 18.4889 10.4954 18.5527 10.4863C18.6165 10.4772 18.6758 10.4544 18.7305 10.418C18.7852 10.3997 18.8353 10.3724 18.8809 10.3359C18.9264 10.2995 18.9674 10.263 19.0039 10.2266C19.0586 10.1719 19.0996 10.1217 19.127 10.0762C19.1543 10.0306 19.1771 9.98047 19.1953 9.92578C19.2135 9.87109 19.2272 9.81185 19.2363 9.74805C19.2454 9.68424 19.25 9.625 19.25 9.57031C19.2318 9.46094 19.1999 9.35612 19.1543 9.25586C19.1087 9.1556 19.0404 9.0599 18.9492 8.96875C18.8763 8.89583 18.7852 8.84115 18.6758 8.80469C18.5664 8.76823 18.457 8.75 18.3477 8.75H16.625C16.1693 8.75 15.7227 8.83659 15.2852 9.00977C14.8477 9.18294 14.4648 9.43359 14.1367 9.76172C13.8086 10.0898 13.5579 10.4681 13.3848 10.8965C13.2116 11.3249 13.125 11.776 13.125 12.25V14.875H10.5C10.4453 14.875 10.3861 14.8796 10.3223 14.8887C10.2585 14.8978 10.1992 14.9206 10.1445 14.957C10.0898 14.9753 10.0397 15.0026 9.99414 15.0391C9.94857 15.0755 9.90755 15.112 9.87109 15.1484C9.81641 15.1849 9.77539 15.2305 9.74805 15.2852C9.7207 15.3398 9.69792 15.3945 9.67969 15.4492C9.66146 15.5039 9.64779 15.5632 9.63867 15.627C9.62956 15.6908 9.625 15.75 9.625 15.8047C9.64323 15.9141 9.67513 16.0189 9.7207 16.1191C9.76628 16.2194 9.83464 16.3151 9.92578 16.4062C9.9987 16.4792 10.0898 16.5339 10.1992 16.5703C10.3086 16.6068 10.418 16.625 10.5273 16.625H13.125V24.8555C13.125 24.8919 13.1204 24.9238 13.1113 24.9512C13.1022 24.9785 13.0977 25.0104 13.0977 25.0469C13.0794 25.0651 13.0612 25.0879 13.043 25.1152C13.0247 25.1426 13.0065 25.1654 12.9883 25.1836C12.9518 25.2018 12.9245 25.2201 12.9062 25.2383C12.888 25.2565 12.8607 25.2656 12.8242 25.2656C12.7878 25.2839 12.7559 25.293 12.7285 25.293C12.7012 25.293 12.6693 25.293 12.6328 25.293C11.2292 25.1289 9.89844 24.7096 8.64063 24.0352C7.38281 23.3607 6.28906 22.4766 5.35938 21.3828C4.42969 20.2891 3.72786 19.0723 3.25391 17.7324C2.77995 16.3926 2.57031 15.0026 2.625 13.5625C2.67969 12.0859 3.00781 10.7005 3.60937 9.40625C4.19271 8.09375 4.97656 6.94987 5.96094 5.97461C6.94531 4.99935 8.08464 4.21094 9.37891 3.60938C10.6732 3.00781 12.0586 2.67969 13.5352 2.625C14.3008 2.60677 15.0618 2.6569 15.8184 2.77539C16.5749 2.89388 17.3177 3.08984 18.0469 3.36328C18.7578 3.63672 19.4368 3.97852 20.084 4.38867C20.7311 4.79883 21.3281 5.26823 21.875 5.79688C22.4219 6.32552 22.9141 6.9043 23.3516 7.5332C23.7891 8.16211 24.1628 8.83203 24.4727 9.54297C24.7643 10.2539 24.9876 10.9831 25.1426 11.7305C25.2975 12.4779 25.375 13.2344 25.375 14Z" fill="#161616"/>
</svg>
