<svg width="20" height="20" viewBox="0 0 20 20" fill="none" xmlns="http://www.w3.org/2000/svg">
<path d="M3.08594 11.8359L9.33594 5.58594C9.375 5.54688 9.42057 5.50781 9.47266 5.46875C9.52474 5.42969 9.58333 5.40365 9.64844 5.39062C9.70052 5.36458 9.75586 5.34505 9.81445 5.33203C9.87305 5.31901 9.9349 5.3125 10 5.3125C10.0651 5.3125 10.127 5.31901 10.1855 5.33203C10.2441 5.34505 10.2995 5.36458 10.3516 5.39062C10.4167 5.40365 10.4753 5.42969 10.5273 5.46875C10.5794 5.50781 10.625 5.54688 10.6641 5.58594L16.9141 11.8359C17.0052 11.9271 17.0736 12.0312 17.1191 12.1484C17.1647 12.2656 17.1875 12.3828 17.1875 12.5C17.1875 12.6302 17.1647 12.7507 17.1191 12.8613C17.0736 12.972 17.0052 13.0729 16.9141 13.1641C16.8229 13.2552 16.722 13.3236 16.6113 13.3691C16.5007 13.4147 16.3802 13.4375 16.25 13.4375C16.1198 13.4375 15.9993 13.4147 15.8887 13.3691C15.778 13.3236 15.6771 13.2552 15.5859 13.1641L10 7.57812L4.41406 13.1641C4.32292 13.2552 4.22201 13.3236 4.11133 13.3691C4.00065 13.4147 3.88021 13.4375 3.75 13.4375C3.61979 13.4375 3.49935 13.4147 3.38867 13.3691C3.27799 13.3236 3.17708 13.2552 3.08594 13.1641C2.99479 13.0729 2.92643 12.972 2.88086 12.8613C2.83529 12.7507 2.8125 12.6302 2.8125 12.5C2.8125 12.3828 2.83529 12.2656 2.88086 12.1484C2.92643 12.0312 2.99479 11.9271 3.08594 11.8359Z" fill="#161616"/>
</svg>
