<svg width="23" height="23" viewBox="0 0 23 23" fill="none" xmlns="http://www.w3.org/2000/svg">
<path d="M16.1191 11.9941L9.24414 18.8691C9.20117 18.8978 9.16178 18.9229 9.12598 18.9443C9.09017 18.9658 9.05078 18.9909 9.00781 19.0195C8.96484 19.0339 8.92188 19.0446 8.87891 19.0518C8.83594 19.0589 8.79297 19.0625 8.75 19.0625C8.70703 19.0625 8.66406 19.0589 8.62109 19.0518C8.57812 19.0446 8.53516 19.0339 8.49219 19.0195C8.44922 18.9909 8.40983 18.9658 8.37402 18.9443C8.33822 18.9229 8.29883 18.8978 8.25586 18.8691C8.22721 18.8262 8.20215 18.7868 8.18066 18.751C8.15918 18.7152 8.13411 18.6758 8.10547 18.6328C8.09115 18.5898 8.0804 18.5469 8.07324 18.5039C8.06608 18.4609 8.0625 18.418 8.0625 18.375C8.0625 18.332 8.06608 18.2891 8.07324 18.2461C8.0804 18.2031 8.09115 18.1602 8.10547 18.1172C8.13411 18.0742 8.15918 18.0348 8.18066 17.999C8.20215 17.9632 8.22721 17.9238 8.25586 17.8809L14.6582 11.5L8.25586 5.11914C8.19857 5.04753 8.15202 4.96875 8.11621 4.88281C8.0804 4.79688 8.0625 4.71094 8.0625 4.625C8.0625 4.53906 8.0804 4.45312 8.11621 4.36719C8.15202 4.28125 8.19857 4.20247 8.25586 4.13086C8.32747 4.07357 8.40625 4.02702 8.49219 3.99121C8.57812 3.9554 8.66406 3.9375 8.75 3.9375C8.83594 3.9375 8.92188 3.9554 9.00781 3.99121C9.09375 4.02702 9.17253 4.07357 9.24414 4.13086L16.1191 11.0059C16.1478 11.0488 16.1729 11.0882 16.1943 11.124C16.2158 11.1598 16.2409 11.1992 16.2695 11.2422C16.2839 11.2852 16.2946 11.3281 16.3018 11.3711C16.3089 11.4141 16.3125 11.457 16.3125 11.5C16.3125 11.543 16.3089 11.5859 16.3018 11.6289C16.2946 11.6719 16.2839 11.7148 16.2695 11.7578C16.2409 11.8008 16.2158 11.8402 16.1943 11.876C16.1729 11.9118 16.1478 11.9512 16.1191 11.9941Z" fill="#161616"/>
</svg>
