<svg width="28" height="28" viewBox="0 0 28 28" fill="none" xmlns="http://www.w3.org/2000/svg">
<path d="M25.7578 14.4648C25.7396 15.9961 25.4388 17.4453 24.8555 18.8125C24.2539 20.1797 23.4427 21.3737 22.4219 22.3945C21.401 23.4154 20.207 24.2266 18.8398 24.8281C17.4909 25.4297 16.0417 25.7396 14.4922 25.7578C14.0182 25.7578 13.5443 25.7305 13.0703 25.6758C12.5964 25.6211 12.1224 25.5391 11.6484 25.4297C11.6302 25.4115 11.6074 25.3978 11.5801 25.3887C11.5527 25.3796 11.5299 25.3659 11.5117 25.3477C11.4753 25.3294 11.4479 25.3112 11.4297 25.293C11.4115 25.2747 11.3932 25.2474 11.375 25.2109C11.375 25.1927 11.3659 25.1699 11.3477 25.1426C11.3294 25.1152 11.3203 25.0833 11.3203 25.0469C11.3203 25.0286 11.3203 25.0059 11.3203 24.9785C11.3203 24.9512 11.3294 24.9193 11.3477 24.8828L12.2773 21.1094C12.7331 21.3464 13.2116 21.5241 13.7129 21.6426C14.2142 21.7611 14.7292 21.8203 15.2578 21.8203C16.2604 21.8203 17.2083 21.6016 18.1016 21.1641C18.9766 20.7448 19.7331 20.1706 20.3711 19.4414C21.0091 18.7122 21.5013 17.8555 21.8477 16.8711C22.1758 15.9049 22.3034 14.875 22.2305 13.7813C22.194 13.2161 22.0938 12.6647 21.9297 12.127C21.7656 11.5892 21.5469 11.0651 21.2734 10.5547C20.9818 10.0625 20.6491 9.60221 20.2754 9.17383C19.9017 8.74544 19.487 8.36719 19.0312 8.03906C18.5755 7.69271 18.0879 7.4056 17.5684 7.17774C17.0488 6.94987 16.5156 6.78125 15.9688 6.67188C15.4036 6.5625 14.8385 6.50781 14.2734 6.50781C13.7083 6.50781 13.1432 6.58073 12.5781 6.72656C12.0312 6.85417 11.5026 7.03646 10.9922 7.27344C10.4818 7.51042 9.9987 7.8112 9.54297 8.17578C9.08724 8.52214 8.68164 8.91406 8.32617 9.35156C7.9707 9.78906 7.65625 10.2539 7.38281 10.7461C7.1276 11.2565 6.92708 11.7852 6.78125 12.332C6.63542 12.8789 6.54427 13.4349 6.50781 14C6.48958 14.5651 6.52604 15.1302 6.61719 15.6953C6.70833 16.2604 6.86328 16.8073 7.08203 17.3359C7.10026 17.3906 7.12305 17.4408 7.15039 17.4863C7.17773 17.5319 7.21875 17.5729 7.27344 17.6094C7.3099 17.6641 7.35547 17.7051 7.41016 17.7324C7.46484 17.7598 7.51953 17.7917 7.57422 17.8281C7.62891 17.8464 7.68359 17.86 7.73828 17.8691C7.79297 17.8783 7.84766 17.8828 7.90234 17.8828C7.95703 17.8828 8.01628 17.8737 8.08008 17.8555C8.14388 17.8372 8.20312 17.819 8.25781 17.8008C8.34896 17.7461 8.43555 17.6777 8.51758 17.5957C8.59961 17.5137 8.65885 17.418 8.69531 17.3086C8.73177 17.1992 8.75 17.0898 8.75 16.9805C8.75 16.8711 8.73177 16.7617 8.69531 16.6523C8.53125 16.2331 8.41276 15.8092 8.33984 15.3809C8.26693 14.9525 8.23958 14.5104 8.25781 14.0547C8.27604 13.6172 8.3444 13.1888 8.46289 12.7695C8.58138 12.3503 8.74089 11.9401 8.94141 11.5391C9.16016 11.1563 9.41081 10.7962 9.69336 10.459C9.97591 10.1217 10.2904 9.81641 10.6367 9.54297C10.9831 9.26953 11.3568 9.03711 11.7578 8.8457C12.1589 8.6543 12.569 8.51302 12.9883 8.42188C13.4258 8.3125 13.8633 8.25781 14.3008 8.25781C14.7383 8.25781 15.1758 8.30339 15.6133 8.39453C16.0508 8.46745 16.4701 8.59505 16.8711 8.77734C17.2721 8.95964 17.6549 9.1875 18.0195 9.46094C18.3659 9.71615 18.6849 10.0078 18.9766 10.3359C19.2682 10.6641 19.5234 11.0195 19.7422 11.4023C19.9609 11.8034 20.1296 12.2135 20.248 12.6328C20.3665 13.0521 20.444 13.4805 20.4805 13.918C20.5352 14.7565 20.4349 15.5495 20.1797 16.2969C19.9427 17.0443 19.5827 17.696 19.0996 18.252C18.6165 18.8079 18.0469 19.25 17.3906 19.5781C16.7161 19.9063 16.0052 20.0703 15.2578 20.0703C14.8021 20.0703 14.36 20.0111 13.9316 19.8926C13.5033 19.7741 13.0977 19.5964 12.7148 19.3594L14.3555 12.8242C14.3737 12.7148 14.3737 12.6055 14.3555 12.4961C14.3372 12.3867 14.3008 12.2865 14.2461 12.1953C14.1914 12.0859 14.1139 11.9993 14.0137 11.9355C13.9134 11.8717 13.8086 11.8216 13.6992 11.7852C13.5898 11.7669 13.4805 11.7624 13.3711 11.7715C13.2617 11.7806 13.1523 11.8216 13.043 11.8945C12.9518 11.9492 12.8698 12.0221 12.7969 12.1133C12.724 12.2044 12.6784 12.3047 12.6602 12.4141L9.70703 24.1719C9.70703 24.2083 9.69792 24.2402 9.67969 24.2676C9.66146 24.2949 9.64323 24.3177 9.625 24.3359C9.60677 24.3724 9.58398 24.3997 9.55664 24.418C9.5293 24.4362 9.4974 24.4453 9.46094 24.4453C9.44271 24.4635 9.41536 24.4772 9.37891 24.4863C9.34245 24.4954 9.30599 24.5 9.26953 24.5C9.2513 24.5 9.22396 24.4954 9.1875 24.4863C9.15104 24.4772 9.11458 24.4635 9.07812 24.4453C8.16667 23.9531 7.32812 23.347 6.5625 22.627C5.79688 21.9069 5.14974 21.1003 4.62109 20.207C4.07422 19.3138 3.66406 18.3613 3.39062 17.3496C3.11719 16.3379 2.98958 15.3034 3.00781 14.2461C3.02604 12.7148 3.32682 11.2656 3.91016 9.89844C4.51172 8.54948 5.32292 7.36458 6.34375 6.34375C7.36458 5.32292 8.55859 4.51172 9.92578 3.91016C11.2747 3.32682 12.724 3.02604 14.2734 3.00781C15.0208 2.98958 15.7637 3.05339 16.502 3.19922C17.2402 3.34505 17.9648 3.5638 18.6758 3.85547C19.3685 4.12891 20.0293 4.47526 20.6582 4.89453C21.2871 5.3138 21.8659 5.78776 22.3945 6.31641C22.9414 6.84505 23.4245 7.42383 23.8438 8.05274C24.263 8.68164 24.6185 9.35156 24.9102 10.0625C25.1836 10.7552 25.3932 11.4707 25.5391 12.209C25.6849 12.9473 25.7578 13.6992 25.7578 14.4648Z" fill="#161616"/>
</svg>
