<svg width="20" height="21" viewBox="0 0 20 21" fill="none" xmlns="http://www.w3.org/2000/svg">
<path d="M18.125 15.0898C18.3464 14.6471 18.5091 14.1816 18.6133 13.6934C18.7174 13.2051 18.763 12.7135 18.75 12.2188C18.737 11.724 18.6654 11.2357 18.5352 10.7539C18.4049 10.2721 18.2227 9.8099 17.9883 9.36719C17.7409 8.9375 17.4512 8.53711 17.1191 8.16602C16.7871 7.79492 16.4128 7.47266 15.9961 7.19922C15.5924 6.92578 15.1563 6.70117 14.6875 6.52539C14.2188 6.34961 13.737 6.22917 13.2422 6.16406C13.0859 5.78646 12.8874 5.42839 12.6465 5.08984C12.4056 4.7513 12.1354 4.43229 11.8359 4.13281C11.5365 3.84635 11.2142 3.59245 10.8691 3.37109C10.5241 3.14974 10.1563 2.96094 9.76563 2.80469C9.375 2.66146 8.97461 2.55404 8.56445 2.48242C8.1543 2.41081 7.74089 2.38151 7.32422 2.39453C6.90755 2.40755 6.4974 2.45964 6.09375 2.55078C5.6901 2.64193 5.29948 2.77214 4.92188 2.94141C4.54427 3.1237 4.1862 3.33529 3.84766 3.57617C3.50911 3.81706 3.19661 4.08724 2.91016 4.38672C2.63672 4.69922 2.39258 5.03125 2.17773 5.38281C1.96289 5.73438 1.78385 6.10547 1.64063 6.49609C1.4974 6.88672 1.39323 7.29036 1.32813 7.70703C1.26302 8.1237 1.24349 8.53386 1.26953 8.9375C1.28255 9.35417 1.34115 9.76432 1.44531 10.168C1.54948 10.5716 1.69271 10.9622 1.875 11.3398L1.30859 13.2734C1.26953 13.3776 1.25 13.485 1.25 13.5957C1.25 13.7064 1.26302 13.8203 1.28906 13.9375C1.3151 14.0417 1.35742 14.1426 1.41602 14.2402C1.47461 14.3379 1.54297 14.4258 1.62109 14.5039C1.69922 14.582 1.78711 14.6504 1.88477 14.709C1.98242 14.7676 2.08333 14.8099 2.1875 14.8359C2.30469 14.862 2.41862 14.875 2.5293 14.875C2.63997 14.875 2.7474 14.8555 2.85156 14.8164L4.78516 14.25C5.09766 14.4063 5.41667 14.5332 5.74219 14.6309C6.06771 14.7285 6.40625 14.7969 6.75781 14.8359C6.91406 15.2266 7.11263 15.5944 7.35352 15.9395C7.5944 16.2845 7.87109 16.6003 8.18359 16.8867C8.48307 17.1862 8.81185 17.4466 9.16992 17.668C9.528 17.8893 9.90886 18.0781 10.3125 18.2344C10.7031 18.3776 11.1068 18.4818 11.5234 18.5469C11.9401 18.612 12.3633 18.638 12.793 18.625C13.2096 18.599 13.623 18.5339 14.0332 18.4297C14.4434 18.3255 14.8372 18.1823 15.2148 18L17.1484 18.5664C17.2526 18.6055 17.36 18.625 17.4707 18.625C17.5814 18.625 17.6953 18.612 17.8125 18.5859C17.9167 18.5599 18.0176 18.5176 18.1152 18.459C18.2129 18.4004 18.3008 18.332 18.3789 18.2539C18.457 18.1758 18.5254 18.0879 18.584 17.9902C18.6426 17.8926 18.6849 17.7917 18.7109 17.6875C18.737 17.5703 18.75 17.4564 18.75 17.3457C18.75 17.235 18.7305 17.1276 18.6914 17.0234L18.125 15.0898ZM4.84375 12.9609C4.81771 12.9609 4.78841 12.9642 4.75586 12.9707C4.72331 12.9772 4.69401 12.9805 4.66797 12.9805L2.5 13.625L3.14453 11.457C3.15755 11.3789 3.16081 11.2975 3.1543 11.2129C3.14779 11.1283 3.125 11.0534 3.08594 10.9883C2.79948 10.4544 2.61719 9.89128 2.53906 9.29883C2.46094 8.70638 2.48698 8.11719 2.61719 7.53125C2.7474 6.94531 2.97526 6.40169 3.30078 5.90039C3.6263 5.39909 4.02995 4.97266 4.51172 4.62109C4.99349 4.25651 5.52409 3.99284 6.10352 3.83008C6.68294 3.66732 7.27214 3.60547 7.87109 3.64453C8.47005 3.68359 9.03971 3.83008 9.58008 4.08398C10.1204 4.33789 10.6055 4.67318 11.0352 5.08984C11.4648 5.51953 11.8034 6.00781 12.0508 6.55469C12.2982 7.10156 12.4414 7.66797 12.4805 8.25391C12.5326 8.85286 12.474 9.44206 12.3047 10.0215C12.1354 10.6009 11.875 11.1315 11.5234 11.6133C11.1589 12.0951 10.7259 12.4987 10.2246 12.8242C9.72331 13.1497 9.17969 13.3776 8.59375 13.5078C8.00781 13.638 7.41862 13.6641 6.82617 13.5859C6.23372 13.5078 5.67057 13.3255 5.13672 13.0391C5.09766 13.013 5.05208 12.9935 5 12.9805C4.94792 12.9674 4.89583 12.9609 4.84375 12.9609ZM16.8555 15.207L17.5 17.375L15.332 16.7305C15.2539 16.7174 15.1758 16.7142 15.0977 16.7207C15.0195 16.7272 14.9414 16.75 14.8633 16.7891C14.2904 17.0885 13.6784 17.2741 13.0273 17.3457C12.3763 17.4173 11.7383 17.362 11.1133 17.1797C10.4883 16.9974 9.91862 16.7044 9.4043 16.3008C8.88997 15.8971 8.47656 15.4089 8.16406 14.8359C8.58073 14.7969 8.99414 14.7122 9.4043 14.582C9.81445 14.4518 10.2083 14.276 10.5859 14.0547C10.9635 13.8464 11.3118 13.599 11.6309 13.3125C11.9499 13.026 12.2396 12.7135 12.5 12.375C12.7604 12.0365 12.9818 11.6719 13.1641 11.2813C13.3464 10.8906 13.4896 10.487 13.5938 10.0703C13.6849 9.64063 13.737 9.21094 13.75 8.78125C13.763 8.35156 13.7305 7.92839 13.6523 7.51172C14.0169 7.60286 14.3717 7.73307 14.7168 7.90234C15.0619 8.07161 15.3841 8.27344 15.6836 8.50781C15.9831 8.75521 16.2467 9.0319 16.4746 9.33789C16.7025 9.64388 16.8945 9.97266 17.0508 10.3242C17.2201 10.6628 17.3405 11.0208 17.4121 11.3984C17.4837 11.776 17.513 12.1602 17.5 12.5508C17.487 12.9284 17.4316 13.3027 17.334 13.6738C17.2363 14.0449 17.0964 14.3997 16.9141 14.7383C16.875 14.8034 16.8522 14.8783 16.8457 14.9629C16.8392 15.0475 16.8424 15.1289 16.8555 15.207Z" fill="white"/>
</svg>
