<svg width="24" height="25" viewBox="0 0 24 25" fill="none" xmlns="http://www.w3.org/2000/svg">
<path d="M18.0938 11.4922C18.0938 10.5234 17.9062 9.60156 17.5312 8.72656C17.1719 7.86719 16.668 7.11719 16.0195 6.47656C15.3711 5.83594 14.6172 5.32812 13.7578 4.95312C12.8984 4.57812 11.9766 4.39062 10.9922 4.39062C10.0234 4.39062 9.10156 4.57812 8.22656 4.95312C7.36719 5.32812 6.61719 5.83594 5.97656 6.47656C5.33594 7.11719 4.82812 7.86719 4.45312 8.72656C4.07812 9.60156 3.89062 10.5234 3.89062 11.4922C3.89062 12.4766 4.07812 13.3984 4.45312 14.2578C4.82812 15.1172 5.33594 15.8711 5.97656 16.5195C6.61719 17.168 7.36719 17.6719 8.22656 18.0312C9.10156 18.4062 10.0234 18.5937 10.9922 18.5937C11.9766 18.5937 12.8984 18.4062 13.7578 18.0312C14.6172 17.6719 15.3711 17.168 16.0195 16.5195C16.668 15.8711 17.1719 15.1172 17.5312 14.2578C17.9062 13.3984 18.0938 12.4766 18.0938 11.4922ZM19.8984 11.4922C19.8984 12.7266 19.6641 13.8828 19.1953 14.9609C18.7266 16.0391 18.0898 16.9805 17.2852 17.7852C16.4805 18.5898 15.5391 19.2266 14.4609 19.6953C13.3828 20.1641 12.2266 20.3984 10.9922 20.3984C9.77344 20.3984 8.625 20.1641 7.54688 19.6953C6.45312 19.2266 5.50391 18.5898 4.69922 17.7852C3.89453 16.9805 3.25781 16.0391 2.78906 14.9609C2.33594 13.8828 2.10938 12.7266 2.10938 11.4922C2.10938 10.2734 2.33594 9.125 2.78906 8.04687C3.25781 6.95312 3.89453 6.00391 4.69922 5.19922C5.50391 4.39453 6.45312 3.75781 7.54688 3.28906C8.625 2.83594 9.77344 2.60937 10.9922 2.60937C12.2266 2.60937 13.3828 2.83594 14.4609 3.28906C15.5391 3.75781 16.4805 4.39453 17.2852 5.19922C18.0898 6.00391 18.7266 6.95312 19.1953 8.04687C19.6641 9.125 19.8984 10.2734 19.8984 11.4922ZM16.0078 16.5078C16.1797 16.3516 16.3789 16.2656 16.6055 16.25C16.832 16.2344 17.0391 16.3047 17.2266 16.4609L17.2969 16.5078L21.6328 20.8672L21.7031 20.9375C21.8438 21.1094 21.9102 21.3125 21.9023 21.5469C21.8945 21.7812 21.8047 21.9766 21.6328 22.1328C21.4766 22.3047 21.2812 22.3945 21.0469 22.4023C20.8125 22.4102 20.6094 22.3437 20.4375 22.2031L20.3672 22.1328L16.0078 17.7969L15.9609 17.7266C15.8047 17.5391 15.7344 17.332 15.75 17.1055C15.7656 16.8789 15.8516 16.6797 16.0078 16.5078Z" fill="#161616"/>
</svg>
