<svg width="20" height="21" viewBox="0 0 20 21" fill="none" xmlns="http://www.w3.org/2000/svg">
<path d="M19.3164 10.2461C19.3034 10.2201 19.1243 9.89779 18.7793 9.2793C18.4342 8.66081 17.8971 7.98047 17.168 7.23828C16.6732 6.75651 16.1523 6.32682 15.6055 5.94922C15.0456 5.57161 14.4661 5.25911 13.8672 5.01172C13.2682 4.76432 12.6432 4.57552 11.9922 4.44531C11.3411 4.3151 10.6771 4.25 10 4.25C9.32292 4.25 8.65885 4.3151 8.00781 4.44531C7.35677 4.57552 6.73177 4.76432 6.13281 5.01172C5.53385 5.25911 4.95443 5.57161 4.39453 5.94922C3.84766 6.32682 3.32682 6.75651 2.83203 7.23828C2.10286 7.98047 1.56576 8.66081 1.2207 9.2793C0.875651 9.89779 0.696615 10.2201 0.683594 10.2461C0.657552 10.2852 0.641276 10.3275 0.634766 10.373C0.628255 10.4186 0.625 10.4609 0.625 10.5C0.625 10.5391 0.628255 10.5814 0.634766 10.627C0.641276 10.6725 0.657552 10.7148 0.683594 10.7539C0.696615 10.7799 0.875651 11.1022 1.2207 11.7207C1.56576 12.3392 2.10286 13.0195 2.83203 13.7617C3.32682 14.2435 3.84766 14.6732 4.39453 15.0508C4.95443 15.4284 5.53385 15.7409 6.13281 15.9883C6.73177 16.2357 7.35677 16.4245 8.00781 16.5547C8.65885 16.6849 9.32292 16.75 10 16.75C10.6771 16.75 11.3411 16.6849 11.9922 16.5547C12.6432 16.4245 13.2682 16.2357 13.8672 15.9883C14.4661 15.7409 15.0456 15.4284 15.6055 15.0508C16.1523 14.6732 16.6732 14.2435 17.168 13.7617C17.8971 13.0195 18.4342 12.3392 18.7793 11.7207C19.1243 11.1022 19.3034 10.7799 19.3164 10.7539C19.3424 10.7148 19.3587 10.6725 19.3652 10.627C19.3717 10.5814 19.375 10.5391 19.375 10.5C19.375 10.4609 19.3717 10.4186 19.3652 10.373C19.3587 10.3275 19.3424 10.2852 19.3164 10.2461ZM10 15.5C9.40104 15.5 8.82161 15.4479 8.26172 15.3438C7.6888 15.2266 7.14193 15.0605 6.62109 14.8457C6.10026 14.6309 5.59896 14.3607 5.11719 14.0352C4.64844 13.7096 4.19271 13.332 3.75 12.9023C3.39844 12.5508 3.06966 12.1732 2.76367 11.7695C2.45768 11.3659 2.1875 10.9427 1.95312 10.5C2.1875 10.0573 2.45768 9.63411 2.76367 9.23047C3.06966 8.82682 3.39844 8.44922 3.75 8.09766C4.19271 7.66797 4.64844 7.29036 5.11719 6.96484C5.59896 6.63932 6.10026 6.36914 6.62109 6.1543C7.14193 5.93945 7.6888 5.77344 8.26172 5.65625C8.82161 5.55208 9.40104 5.5 10 5.5C10.599 5.5 11.1784 5.55208 11.7383 5.65625C12.3112 5.77344 12.8581 5.93945 13.3789 6.1543C13.8997 6.36914 14.401 6.63932 14.8828 6.96484C15.3516 7.29036 15.8073 7.66797 16.25 8.09766C16.6016 8.44922 16.9303 8.82682 17.2363 9.23047C17.5423 9.63411 17.8125 10.0573 18.0469 10.5C17.9036 10.7604 17.6432 11.1706 17.2656 11.7305C16.875 12.2773 16.3542 12.8307 15.7031 13.3906C15.0521 13.9505 14.2513 14.4453 13.3008 14.875C12.3633 15.2917 11.263 15.5 10 15.5ZM10 6.75C9.63542 6.75 9.27409 6.80534 8.91602 6.91602C8.55794 7.02669 8.22266 7.17969 7.91016 7.375C7.61068 7.58333 7.34375 7.83073 7.10938 8.11719C6.875 8.40365 6.6862 8.72266 6.54297 9.07422C6.39974 9.41276 6.30859 9.76758 6.26953 10.1387C6.23047 10.5098 6.25 10.8711 6.32812 11.2227C6.39323 11.5872 6.51367 11.9355 6.68945 12.2676C6.86523 12.5996 7.08333 12.8958 7.34375 13.1562C7.60417 13.4167 7.90039 13.6348 8.23242 13.8105C8.56445 13.9863 8.91276 14.1068 9.27734 14.1719C9.62891 14.25 9.99023 14.2695 10.3613 14.2305C10.7324 14.1914 11.0872 14.1003 11.4258 13.957C11.7773 13.8138 12.0964 13.625 12.3828 13.3906C12.6693 13.1562 12.9167 12.8893 13.125 12.5898C13.3203 12.2773 13.4733 11.9421 13.584 11.584C13.6947 11.2259 13.75 10.8646 13.75 10.5C13.75 10.0052 13.6556 9.52669 13.4668 9.06445C13.278 8.60221 13.0078 8.19531 12.6562 7.84375C12.3047 7.49219 11.8978 7.22201 11.4355 7.0332C10.9733 6.8444 10.4948 6.75 10 6.75ZM10 13C9.7526 13 9.51172 12.9642 9.27734 12.8926C9.04297 12.821 8.82161 12.7135 8.61328 12.5703C8.40495 12.4401 8.22266 12.2806 8.06641 12.0918C7.91016 11.903 7.78646 11.6914 7.69531 11.457C7.59115 11.2227 7.5293 10.985 7.50977 10.7441C7.49023 10.5033 7.5 10.2591 7.53906 10.0117C7.59115 9.76432 7.67578 9.5332 7.79297 9.31836C7.91016 9.10352 8.05339 8.90495 8.22266 8.72266C8.40495 8.55339 8.60352 8.41016 8.81836 8.29297C9.0332 8.17578 9.26432 8.09115 9.51172 8.03906C9.75911 8 10.0033 7.99023 10.2441 8.00977C10.485 8.0293 10.7227 8.09115 10.957 8.19531C11.1914 8.28646 11.403 8.41016 11.5918 8.56641C11.7806 8.72266 11.9401 8.90495 12.0703 9.11328C12.2135 9.32161 12.321 9.54297 12.3926 9.77734C12.4642 10.0117 12.5 10.2526 12.5 10.5C12.5 10.8255 12.4382 11.1445 12.3145 11.457C12.1908 11.7695 12.0117 12.043 11.7773 12.2773C11.543 12.5117 11.2695 12.6908 10.957 12.8145C10.6445 12.9382 10.3255 13 10 13Z" fill="white"/>
</svg>
