<svg width="38" height="38" viewBox="0 0 38 38" fill="none" xmlns="http://www.w3.org/2000/svg">
<path d="M26.125 3.5625H11.875C10.7617 3.5625 9.69792 3.77279 8.68359 4.19336C7.66927 4.61393 6.77865 5.22005 6.01172 6.01172C5.22005 6.77865 4.61393 7.66927 4.19336 8.68359C3.77279 9.69792 3.5625 10.7617 3.5625 11.875V26.125C3.5625 27.2383 3.77279 28.3021 4.19336 29.3164C4.61393 30.3307 5.22005 31.2214 6.01172 31.9883C6.77865 32.7799 7.66927 33.3861 8.68359 33.8066C9.69792 34.2272 10.7617 34.4375 11.875 34.4375H26.125C27.2383 34.4375 28.3021 34.2272 29.3164 33.8066C30.3307 33.3861 31.2214 32.7799 31.9883 31.9883C32.7799 31.2214 33.3861 30.3307 33.8066 29.3164C34.2272 28.3021 34.4375 27.2383 34.4375 26.125V11.875C34.4375 10.7617 34.2272 9.69792 33.8066 8.68359C33.3861 7.66927 32.7799 6.77865 31.9883 6.01172C31.2214 5.22005 30.3307 4.61393 29.3164 4.19336C28.3021 3.77279 27.2383 3.5625 26.125 3.5625ZM19 26.125C18.3073 26.125 17.6208 26.0199 16.9404 25.8096C16.2601 25.5993 15.623 25.3086 15.0293 24.9375C14.4603 24.5417 13.9531 24.0716 13.5078 23.5273C13.0625 22.9831 12.7038 22.377 12.4316 21.709C12.1595 21.0658 11.9863 20.3916 11.9121 19.6865C11.8379 18.9814 11.875 18.2949 12.0234 17.627C12.1471 16.9342 12.376 16.2725 12.71 15.6416C13.0439 15.0107 13.4583 14.4479 13.9531 13.9531C14.4479 13.4583 15.0107 13.0439 15.6416 12.71C16.2725 12.376 16.9342 12.1471 17.627 12.0234C18.2949 11.875 18.9814 11.8379 19.6865 11.9121C20.3916 11.9863 21.0658 12.1595 21.709 12.4316C22.377 12.7038 22.9831 13.0625 23.5273 13.5078C24.0716 13.9531 24.5417 14.4603 24.9375 15.0293C25.3086 15.623 25.5993 16.2601 25.8096 16.9404C26.0199 17.6208 26.125 18.3073 26.125 19C26.125 19.9401 25.9456 20.8493 25.5869 21.7275C25.2282 22.6058 24.7148 23.3789 24.0469 24.0469C23.3789 24.7148 22.6058 25.2282 21.7275 25.5869C20.8493 25.9456 19.9401 26.125 19 26.125ZM27.9062 11.875C27.7331 11.875 27.5599 11.8503 27.3867 11.8008C27.2135 11.7513 27.0527 11.6771 26.9043 11.5781C26.7559 11.4792 26.626 11.3617 26.5146 11.2256C26.4033 11.0895 26.3229 10.9349 26.2734 10.7617C26.1992 10.6133 26.1559 10.4525 26.1436 10.2793C26.1312 10.1061 26.1374 9.93294 26.1621 9.75977C26.1868 9.58659 26.2425 9.4196 26.3291 9.25879C26.4157 9.09798 26.5208 8.95573 26.6445 8.83203C26.7682 8.70833 26.9105 8.60319 27.0713 8.5166C27.2321 8.43001 27.3991 8.37435 27.5723 8.34961C27.7454 8.32487 27.9186 8.31868 28.0918 8.33105C28.265 8.34342 28.4258 8.38672 28.5742 8.46094C28.7474 8.51042 28.902 8.59082 29.0381 8.70215C29.1742 8.81348 29.2917 8.94336 29.3906 9.0918C29.4896 9.24023 29.5638 9.40104 29.6133 9.57422C29.6628 9.7474 29.6875 9.92057 29.6875 10.0938C29.6875 10.3411 29.6442 10.57 29.5576 10.7803C29.471 10.9906 29.3411 11.1823 29.168 11.3555C28.9948 11.5286 28.8031 11.6585 28.5928 11.7451C28.3825 11.8317 28.1536 11.875 27.9062 11.875ZM23.75 19C23.75 19.4701 23.682 19.9277 23.5459 20.373C23.4098 20.8184 23.2057 21.2389 22.9336 21.6348C22.6862 22.0306 22.3831 22.377 22.0244 22.6738C21.6657 22.9707 21.2637 23.2057 20.8184 23.3789C20.373 23.5768 19.9215 23.6943 19.4639 23.7314C19.0062 23.7686 18.5423 23.75 18.0723 23.6758C17.6022 23.5768 17.1631 23.416 16.7549 23.1934C16.3467 22.9707 15.9694 22.6986 15.623 22.377C15.3014 22.0306 15.0293 21.6533 14.8066 21.2451C14.584 20.8369 14.4232 20.3978 14.3242 19.9277C14.25 19.4577 14.2314 18.9938 14.2686 18.5361C14.3057 18.0785 14.4232 17.627 14.6211 17.1816C14.7943 16.7363 15.0293 16.3343 15.3262 15.9756C15.623 15.6169 15.9694 15.3138 16.3652 15.0664C16.7611 14.7943 17.1816 14.5902 17.627 14.4541C18.0723 14.318 18.5299 14.25 19 14.25C19.6185 14.25 20.2246 14.3675 20.8184 14.6025C21.4121 14.8376 21.9316 15.1777 22.377 15.623C22.8223 16.0684 23.1624 16.5879 23.3975 17.1816C23.6325 17.7754 23.75 18.3815 23.75 19Z" fill="#161616"/>
</svg>
