<svg width="28" height="28" viewBox="0 0 28 28" fill="none" xmlns="http://www.w3.org/2000/svg">
<path d="M19.25 2.625H8.75C7.92969 2.625 7.14583 2.77995 6.39844 3.08984C5.65104 3.39974 4.99479 3.84635 4.42969 4.42969C3.84635 4.99479 3.39974 5.65104 3.08984 6.39844C2.77995 7.14583 2.625 7.92969 2.625 8.75V19.25C2.625 20.0703 2.77995 20.8542 3.08984 21.6016C3.39974 22.349 3.84635 23.0052 4.42969 23.5703C4.99479 24.1536 5.65104 24.6003 6.39844 24.9102C7.14583 25.2201 7.92969 25.375 8.75 25.375H19.25C20.0703 25.375 20.8542 25.2201 21.6016 24.9102C22.349 24.6003 23.0052 24.1536 23.5703 23.5703C24.1536 23.0052 24.6003 22.349 24.9102 21.6016C25.2201 20.8542 25.375 20.0703 25.375 19.25V8.75C25.375 7.92969 25.2201 7.14583 24.9102 6.39844C24.6003 5.65104 24.1536 4.99479 23.5703 4.42969C23.0052 3.84635 22.349 3.39974 21.6016 3.08984C20.8542 2.77995 20.0703 2.625 19.25 2.625ZM14 19.25C13.4896 19.25 12.9837 19.1725 12.4824 19.0176C11.9811 18.8626 11.5117 18.6484 11.0742 18.375C10.6549 18.0833 10.2812 17.737 9.95312 17.3359C9.625 16.9349 9.36068 16.4883 9.16016 15.9961C8.95964 15.5221 8.83203 15.0254 8.77734 14.5059C8.72266 13.9863 8.75 13.4805 8.85938 12.9883C8.95052 12.4779 9.11914 11.9902 9.36523 11.5254C9.61133 11.0605 9.91667 10.6458 10.2812 10.2812C10.6458 9.91667 11.0605 9.61133 11.5254 9.36523C11.9902 9.11914 12.4779 8.95052 12.9883 8.85938C13.4805 8.75 13.9863 8.72266 14.5059 8.77734C15.0254 8.83203 15.5221 8.95964 15.9961 9.16016C16.4883 9.36068 16.9349 9.625 17.3359 9.95312C17.737 10.2812 18.0833 10.6549 18.375 11.0742C18.6484 11.5117 18.8626 11.9811 19.0176 12.4824C19.1725 12.9837 19.25 13.4896 19.25 14C19.25 14.6927 19.1178 15.3626 18.8535 16.0098C18.5892 16.6569 18.2109 17.2266 17.7188 17.7188C17.2266 18.2109 16.6569 18.5892 16.0098 18.8535C15.3626 19.1178 14.6927 19.25 14 19.25ZM20.5625 8.75C20.4349 8.75 20.3073 8.73177 20.1797 8.69531C20.0521 8.65885 19.9336 8.60417 19.8242 8.53125C19.7148 8.45833 19.6191 8.37174 19.5371 8.27148C19.4551 8.17122 19.3958 8.05729 19.3594 7.92969C19.3047 7.82031 19.2728 7.70182 19.2637 7.57422C19.2546 7.44661 19.2591 7.31901 19.2773 7.19141C19.2956 7.0638 19.3366 6.94076 19.4004 6.82227C19.4642 6.70378 19.5417 6.59896 19.6328 6.50781C19.724 6.41667 19.8288 6.33919 19.9473 6.27539C20.0658 6.21159 20.1888 6.17057 20.3164 6.15234C20.444 6.13411 20.5716 6.12956 20.6992 6.13867C20.8268 6.14779 20.9453 6.17969 21.0547 6.23438C21.1823 6.27083 21.2962 6.33008 21.3965 6.41211C21.4967 6.49414 21.5833 6.58984 21.6562 6.69922C21.7292 6.80859 21.7839 6.92708 21.8203 7.05469C21.8568 7.18229 21.875 7.3099 21.875 7.4375C21.875 7.61979 21.8431 7.78841 21.7793 7.94336C21.7155 8.09831 21.6198 8.23958 21.4922 8.36719C21.3646 8.49479 21.2233 8.59049 21.0684 8.6543C20.9134 8.7181 20.7448 8.75 20.5625 8.75ZM17.5 14C17.5 14.3464 17.4499 14.6836 17.3496 15.0117C17.2493 15.3398 17.099 15.6497 16.8984 15.9414C16.7161 16.2331 16.4928 16.4883 16.2285 16.707C15.9642 16.9258 15.668 17.099 15.3398 17.2266C15.0117 17.3724 14.679 17.459 14.3418 17.4863C14.0046 17.5137 13.6628 17.5 13.3164 17.4453C12.9701 17.3724 12.6465 17.2539 12.3457 17.0898C12.0449 16.9258 11.7669 16.7253 11.5117 16.4883C11.2747 16.2331 11.0742 15.9551 10.9102 15.6543C10.7461 15.3535 10.6276 15.0299 10.5547 14.6836C10.5 14.3372 10.4863 13.9954 10.5137 13.6582C10.541 13.321 10.6276 12.9883 10.7734 12.6602C10.901 12.332 11.0742 12.0358 11.293 11.7715C11.5117 11.5072 11.7669 11.2839 12.0586 11.1016C12.3503 10.901 12.6602 10.7507 12.9883 10.6504C13.3164 10.5501 13.6536 10.5 14 10.5C14.4557 10.5 14.9023 10.5866 15.3398 10.7598C15.7773 10.9329 16.1602 11.1836 16.4883 11.5117C16.8164 11.8398 17.0671 12.2227 17.2402 12.6602C17.4134 13.0977 17.5 13.5443 17.5 14Z" fill="#161616"/>
</svg>
