<svg width="28" height="28" viewBox="0 0 28 28" fill="none" xmlns="http://www.w3.org/2000/svg">
<path d="M23.5156 24.0352C23.4792 24.1081 23.4336 24.1719 23.3789 24.2266C23.3242 24.2812 23.2604 24.3359 23.1875 24.3906C23.1328 24.4271 23.0645 24.4544 22.9824 24.4727C22.9004 24.4909 22.8229 24.5 22.75 24.5H17.5C17.4271 24.5 17.3542 24.4909 17.2812 24.4727C17.2083 24.4544 17.1445 24.4271 17.0898 24.3906C17.0169 24.3542 16.9531 24.3132 16.8984 24.2676C16.8438 24.222 16.7982 24.1628 16.7617 24.0898L12.332 17.1445L5.90625 24.2266C5.8151 24.2995 5.7194 24.3587 5.61914 24.4043C5.51888 24.4499 5.41406 24.4818 5.30469 24.5C5.17708 24.5 5.05859 24.4818 4.94922 24.4453C4.83984 24.4089 4.7487 24.3451 4.67578 24.2539C4.58464 24.181 4.51628 24.0944 4.4707 23.9941C4.42513 23.8939 4.39323 23.7799 4.375 23.6523C4.375 23.543 4.39323 23.4336 4.42969 23.3242C4.46615 23.2148 4.52083 23.1146 4.59375 23.0234L11.3477 15.5859L4.51172 4.83984C4.47526 4.78516 4.44336 4.7168 4.41602 4.63477C4.38867 4.55273 4.375 4.47526 4.375 4.40234C4.375 4.32943 4.38411 4.25195 4.40234 4.16992C4.42057 4.08789 4.44792 4.01953 4.48438 3.96484C4.52083 3.89193 4.56641 3.82812 4.62109 3.77344C4.67578 3.71875 4.73958 3.66406 4.8125 3.60938C4.86719 3.57292 4.93555 3.54557 5.01758 3.52734C5.09961 3.50911 5.17708 3.5 5.25 3.5H10.5C10.5729 3.5 10.6458 3.50911 10.7188 3.52734C10.7917 3.54557 10.8555 3.57292 10.9102 3.60938C10.9831 3.64583 11.0469 3.68685 11.1016 3.73242C11.1562 3.77799 11.2018 3.83724 11.2383 3.91016L15.668 10.8555L22.0938 3.77344C22.1849 3.70052 22.2806 3.64128 22.3809 3.5957C22.4811 3.55013 22.5859 3.51823 22.6953 3.5C22.8229 3.5 22.9414 3.51823 23.0508 3.55469C23.1602 3.59115 23.2513 3.65495 23.3242 3.74609C23.4154 3.81901 23.4837 3.9056 23.5293 4.00586C23.5749 4.10612 23.6068 4.22005 23.625 4.34766C23.625 4.45703 23.6068 4.56641 23.5703 4.67578C23.5339 4.78516 23.4792 4.88542 23.4062 4.97656L16.6523 12.3867L23.4883 23.1602C23.5247 23.2148 23.5566 23.2832 23.584 23.3652C23.6113 23.4473 23.625 23.5247 23.625 23.5977C23.625 23.6706 23.6159 23.748 23.5977 23.8301C23.5794 23.9121 23.5521 23.9805 23.5156 24.0352Z" fill="#161616"/>
</svg>
