<svg width="16" height="16" viewBox="0 0 16 16" fill="none" xmlns="http://www.w3.org/2000/svg">
<path d="M14.4688 2.76562C14.4688 2.76562 14.4688 2.76823 14.4688 2.77344C14.4688 2.77865 14.4688 2.78125 14.4688 2.78125L10.8281 14.7812C10.7969 14.875 10.7552 14.9635 10.7031 15.0469C10.651 15.1302 10.5833 15.2083 10.5 15.2812C10.4271 15.3438 10.3411 15.3932 10.2422 15.4297C10.1432 15.4661 10.0469 15.4896 9.95312 15.5C9.93229 15.5 9.91667 15.5 9.90625 15.5C9.89583 15.5 9.88021 15.5 9.85938 15.5C9.76562 15.5 9.67448 15.487 9.58594 15.4609C9.4974 15.4349 9.41146 15.3958 9.32812 15.3438C9.24479 15.2917 9.17188 15.2318 9.10938 15.1641C9.04688 15.0964 9 15.0156 8.96875 14.9219L6.6875 10.2656C6.67708 10.2344 6.66927 10.2057 6.66406 10.1797C6.65885 10.1536 6.66146 10.1302 6.67188 10.1094C6.67188 10.0781 6.67708 10.0521 6.6875 10.0312C6.69792 10.0104 6.71354 9.98958 6.73438 9.96875L10.3594 6.35938C10.401 6.30729 10.4349 6.25 10.4609 6.1875C10.487 6.125 10.5 6.0625 10.5 6C10.4896 5.9375 10.474 5.875 10.4531 5.8125C10.4323 5.75 10.3958 5.69792 10.3438 5.65625C10.3021 5.60417 10.25 5.56771 10.1875 5.54688C10.125 5.52604 10.0625 5.51562 10 5.51562C9.9375 5.50521 9.875 5.51302 9.8125 5.53906C9.75 5.5651 9.69792 5.59896 9.65625 5.64062L6.03125 9.26562C6.01042 9.28646 5.98958 9.30208 5.96875 9.3125C5.94792 9.32292 5.92188 9.33333 5.89062 9.34375C5.86979 9.34375 5.84635 9.34115 5.82031 9.33594C5.79427 9.33073 5.76562 9.32292 5.73438 9.3125L1.0625 7.04688C0.979167 6.99479 0.898438 6.9349 0.820313 6.86719C0.742188 6.79948 0.677083 6.72396 0.625 6.64062C0.583333 6.54688 0.549479 6.45052 0.523438 6.35156C0.497396 6.2526 0.489583 6.15625 0.5 6.0625C0.510417 5.95833 0.533854 5.85938 0.570313 5.76562C0.606771 5.67188 0.661458 5.58333 0.734375 5.5C0.796875 5.42708 0.869792 5.36198 0.953125 5.30469C1.03646 5.2474 1.125 5.20312 1.21875 5.17188L13.2344 1.54688C13.3177 1.51562 13.4036 1.5 13.4922 1.5C13.5807 1.5 13.6667 1.51042 13.75 1.53125C13.8333 1.55208 13.9141 1.58594 13.9922 1.63281C14.0703 1.67969 14.1406 1.73438 14.2031 1.79688C14.2656 1.85938 14.3203 1.92969 14.3672 2.00781C14.4141 2.08594 14.4479 2.16667 14.4688 2.25C14.4896 2.33333 14.5 2.41927 14.5 2.50781C14.5 2.59635 14.4896 2.68229 14.4688 2.76562Z" fill="white"/>
</svg>
