<svg width="132" height="30" viewBox="0 0 132 30" fill="none" xmlns="http://www.w3.org/2000/svg">
<g clip-path="url(#clip0_221_232)">
<path d="M29.3567 28.6326V1.1984H40.9401C41.2068 1.1984 41.5624 1.2111 42.007 1.2365C42.4642 1.24921 42.8706 1.28731 43.2263 1.35081C44.8647 1.60483 46.2046 2.14463 47.2461 2.97019C48.3003 3.79576 49.0751 4.83724 49.5704 6.09465C50.0658 7.33938 50.3134 8.73014 50.3134 10.2669C50.3134 12.5658 49.7419 14.5345 48.5988 16.1729C47.4557 17.7987 45.6649 18.802 43.2263 19.183L40.9401 19.3355H34.5388V28.6326H29.3567ZM44.8266 28.6326L39.4159 17.4684L44.7504 16.4396L50.6945 28.6326H44.8266ZM34.5388 14.4964H40.7115C40.9782 14.4964 41.2703 14.4837 41.5878 14.4583C41.9054 14.4329 42.1975 14.3821 42.4642 14.3058C43.1628 14.1153 43.7025 13.7979 44.0836 13.3533C44.4646 12.896 44.725 12.3944 44.8647 11.8482C45.0171 11.2894 45.0933 10.7623 45.0933 10.2669C45.0933 9.77158 45.0171 9.25086 44.8647 8.70469C44.725 8.14587 44.4646 7.6442 44.0836 7.19962C43.7025 6.7424 43.1628 6.41852 42.4642 6.22801C42.1975 6.1518 41.9054 6.10099 41.5878 6.0756C41.2703 6.0502 40.9782 6.03749 40.7115 6.03749H34.5388V14.4964Z" fill="#161616"/>
<path d="M66.6567 29.2042C63.9132 29.2042 61.5445 28.6072 59.5504 27.4133C57.5691 26.2195 56.0386 24.5493 54.959 22.4028C53.8921 20.2563 53.3587 17.7606 53.3587 14.9155C53.3587 12.0705 53.8921 9.57474 54.959 7.42824C56.0386 5.28179 57.5691 3.6116 59.5504 2.4177C61.5445 1.22381 63.9132 0.626854 66.6567 0.626854C69.4 0.626854 71.7624 1.22381 73.7438 2.4177C75.7381 3.6116 77.2683 5.28179 78.3352 7.42824C79.415 9.57474 79.9546 12.0705 79.9546 14.9155C79.9546 17.7606 79.415 20.2563 78.3352 22.4028C77.2683 24.5493 75.7381 26.2195 73.7438 27.4133C71.7624 28.6072 69.4 29.2042 66.6567 29.2042ZM66.6567 24.327C68.3964 24.3524 69.8443 23.9777 71.0003 23.2029C72.1564 22.4282 73.0198 21.3295 73.5914 19.907C74.1758 18.4845 74.4677 16.8207 74.4677 14.9155C74.4677 13.0103 74.1758 11.3593 73.5914 9.9621C73.0198 8.56501 72.1564 7.47907 71.0003 6.7043C69.8443 5.92954 68.3964 5.52945 66.6567 5.50405C64.9166 5.47865 63.4687 5.85332 62.3129 6.62809C61.1572 7.40286 60.2871 8.50152 59.7029 9.92399C59.1313 11.3465 58.8455 13.0103 58.8455 14.9155C58.8455 16.8207 59.1313 18.4718 59.7029 19.8689C60.2871 21.2661 61.1572 22.352 62.3129 23.1267C63.4687 23.9015 64.9166 24.3016 66.6567 24.327Z" fill="#161616"/>
<path d="M82.996 28.6326V27.9849L96.0273 6.03749H84.1391V1.1984H105.096V1.84615L92.1408 23.7554H104.715V28.6326H82.996Z" fill="#161616"/>
<path d="M116.362 28.6326V17.4684L106.989 1.1984H113.047L118.991 11.5243L124.935 1.1984H130.994L121.62 17.4684V28.6326H116.362Z" fill="#161616"/>
<path d="M6.53014 6.51277C-0.0217769 6.51277 1.075 0.735828 1.075 0.735828H15.05C26.1374 0.735828 26.3875 29.3132 15.05 29.3132H1.05935L1.09583 12.1748H5.62877V23.5363H14.1147C20.031 23.5363 20.0649 6.51277 13.1586 6.51277H6.52753H6.53014Z" fill="#161616"/>
</g>
<defs>
<clipPath id="clip0_221_232">
<rect width="132" height="29.9381" fill="white" transform="translate(0 0.000927835)"/>
</clipPath>
</defs>
</svg>
