<svg width="24" height="24" viewBox="0 0 24 24" fill="none" xmlns="http://www.w3.org/2000/svg">
<path d="M17.25 23.375H6.75C5.92969 23.375 5.14583 23.2201 4.39844 22.9102C3.65104 22.6003 2.99479 22.1536 2.42969 21.5703C1.84635 21.0052 1.39974 20.349 1.08984 19.6016C0.779948 18.8542 0.625 18.0703 0.625 17.25V6.75C0.625 5.92969 0.779948 5.14583 1.08984 4.39844C1.39974 3.65104 1.84635 2.99479 2.42969 2.42969C2.99479 1.84635 3.65104 1.39974 4.39844 1.08984C5.14583 0.779948 5.92969 0.625 6.75 0.625H17.25C18.0703 0.625 18.8542 0.779948 19.6016 1.08984C20.349 1.39974 21.0052 1.84635 21.5703 2.42969C22.1536 2.99479 22.6003 3.65104 22.9102 4.39844C23.2201 5.14583 23.375 5.92969 23.375 6.75V17.25C23.375 18.0703 23.2201 18.8542 22.9102 19.6016C22.6003 20.349 22.1536 21.0052 21.5703 21.5703C21.0052 22.1536 20.349 22.6003 19.6016 22.9102C18.8542 23.2201 18.0703 23.375 17.25 23.375ZM12 6.75C11.4896 6.75 10.9837 6.82747 10.4824 6.98242C9.98112 7.13737 9.51172 7.35156 9.07422 7.625C8.65495 7.91667 8.28125 8.26302 7.95312 8.66406C7.625 9.0651 7.36068 9.51172 7.16016 10.0039C6.95964 10.4779 6.83203 10.9746 6.77734 11.4941C6.72266 12.0137 6.75 12.5195 6.85938 13.0117C6.95052 13.5221 7.11914 14.0098 7.36523 14.4746C7.61133 14.9395 7.91667 15.3542 8.28125 15.7188C8.64583 16.0833 9.06055 16.3887 9.52539 16.6348C9.99023 16.8809 10.4779 17.0495 10.9883 17.1406C11.4805 17.25 11.9863 17.2773 12.5059 17.2227C13.0254 17.168 13.5221 17.0404 13.9961 16.8398C14.4883 16.6393 14.9349 16.375 15.3359 16.0469C15.737 15.7188 16.0833 15.3451 16.375 14.9258C16.6484 14.4883 16.8626 14.0189 17.0176 13.5176C17.1725 13.0163 17.25 12.5104 17.25 12C17.25 11.3073 17.1178 10.6374 16.8535 9.99023C16.5892 9.3431 16.2109 8.77344 15.7188 8.28125C15.2266 7.78906 14.6569 7.41081 14.0098 7.14648C13.3626 6.88216 12.6927 6.75 12 6.75ZM18.5625 17.25C18.4349 17.25 18.3073 17.2682 18.1797 17.3047C18.0521 17.3411 17.9336 17.3958 17.8242 17.4688C17.7148 17.5417 17.6191 17.6283 17.5371 17.7285C17.4551 17.8288 17.3958 17.9427 17.3594 18.0703C17.3047 18.1797 17.2728 18.2982 17.2637 18.4258C17.2546 18.5534 17.2591 18.681 17.2773 18.8086C17.2956 18.9362 17.3366 19.0592 17.4004 19.1777C17.4642 19.2962 17.5417 19.401 17.6328 19.4922C17.724 19.5833 17.8288 19.6608 17.9473 19.7246C18.0658 19.7884 18.1888 19.8294 18.3164 19.8477C18.444 19.8659 18.5716 19.8704 18.6992 19.8613C18.8268 19.8522 18.9453 19.8203 19.0547 19.7656C19.1823 19.7292 19.2962 19.6699 19.3965 19.5879C19.4967 19.5059 19.5833 19.4102 19.6562 19.3008C19.7292 19.1914 19.7839 19.0729 19.8203 18.9453C19.8568 18.8177 19.875 18.6901 19.875 18.5625C19.875 18.3802 19.8431 18.2116 19.7793 18.0566C19.7155 17.9017 19.6198 17.7604 19.4922 17.6328C19.3646 17.5052 19.2233 17.4095 19.0684 17.3457C18.9134 17.2819 18.7448 17.25 18.5625 17.25ZM15.5 12C15.5 11.6536 15.4499 11.3164 15.3496 10.9883C15.2493 10.6602 15.099 10.3503 14.8984 10.0586C14.7161 9.76693 14.4928 9.51172 14.2285 9.29297C13.9642 9.07422 13.668 8.90104 13.3398 8.77344C13.0117 8.6276 12.679 8.54102 12.3418 8.51367C12.0046 8.48633 11.6628 8.5 11.3164 8.55469C10.9701 8.6276 10.6465 8.74609 10.3457 8.91016C10.0449 9.07422 9.76693 9.27474 9.51172 9.51172C9.27474 9.76693 9.07422 10.0449 8.91016 10.3457C8.74609 10.6465 8.6276 10.9701 8.55469 11.3164C8.5 11.6628 8.48633 12.0046 8.51367 12.3418C8.54102 12.679 8.6276 13.0117 8.77344 13.3398C8.90104 13.668 9.07422 13.9642 9.29297 14.2285C9.51172 14.4928 9.76693 14.7161 10.0586 14.8984C10.3503 15.099 10.6602 15.2493 10.9883 15.3496C11.3164 15.4499 11.6536 15.5 12 15.5C12.4557 15.5 12.9023 15.4134 13.3398 15.2402C13.7773 15.0671 14.1602 14.8164 14.4883 14.4883C14.8164 14.1602 15.0671 13.7773 15.2402 13.3398C15.4134 12.9023 15.5 12.4557 15.5 12Z" fill="#161616"/>
</svg>
