<svg width="15" height="15" viewBox="0 0 15 15" fill="none" xmlns="http://www.w3.org/2000/svg">
<path d="M14.4687 13.2344C14.4687 13.2344 14.4687 13.2318 14.4687 13.2266C14.4687 13.2214 14.4687 13.2188 14.4687 13.2188L10.8281 1.21875C10.7969 1.125 10.7552 1.03646 10.7031 0.953125C10.651 0.869792 10.5833 0.791667 10.5 0.71875C10.4271 0.65625 10.3411 0.606771 10.2422 0.570312C10.1432 0.533854 10.0469 0.510417 9.95312 0.5C9.93229 0.5 9.91667 0.5 9.90625 0.5C9.89583 0.5 9.88021 0.5 9.85937 0.5C9.76562 0.5 9.67448 0.513021 9.58594 0.539062C9.4974 0.565104 9.41146 0.604167 9.32812 0.65625C9.24479 0.708333 9.17187 0.768229 9.10937 0.835938C9.04687 0.903646 9 0.984375 8.96875 1.07812L6.6875 5.73438C6.67708 5.76562 6.66927 5.79427 6.66406 5.82031C6.65885 5.84635 6.66146 5.86979 6.67187 5.89062C6.67187 5.92188 6.67708 5.94792 6.6875 5.96875C6.69792 5.98958 6.71354 6.01042 6.73437 6.03125L10.3594 9.64062C10.401 9.69271 10.4349 9.75 10.4609 9.8125C10.487 9.875 10.5 9.9375 10.5 10C10.4896 10.0625 10.474 10.125 10.4531 10.1875C10.4323 10.25 10.3958 10.3021 10.3437 10.3438C10.3021 10.3958 10.25 10.4323 10.1875 10.4531C10.125 10.474 10.0625 10.4844 10 10.4844C9.9375 10.4948 9.875 10.487 9.8125 10.4609C9.75 10.4349 9.69792 10.401 9.65625 10.3594L6.03125 6.73438C6.01042 6.71354 5.98958 6.69792 5.96875 6.6875C5.94792 6.67708 5.92187 6.66667 5.89062 6.65625C5.86979 6.65625 5.84635 6.65885 5.82031 6.66406C5.79427 6.66927 5.76562 6.67708 5.73437 6.6875L1.0625 8.95312C0.979167 9.00521 0.898438 9.0651 0.820312 9.13281C0.742188 9.20052 0.677083 9.27604 0.625 9.35938C0.583333 9.45312 0.549479 9.54948 0.523437 9.64844C0.497396 9.7474 0.489583 9.84375 0.5 9.9375C0.510417 10.0417 0.533854 10.1406 0.570312 10.2344C0.606771 10.3281 0.661458 10.4167 0.734375 10.5C0.796875 10.5729 0.869792 10.638 0.953125 10.6953C1.03646 10.7526 1.125 10.7969 1.21875 10.8281L13.2344 14.4531C13.3177 14.4844 13.4036 14.5 13.4922 14.5C13.5807 14.5 13.6667 14.4896 13.75 14.4688C13.8333 14.4479 13.9141 14.4141 13.9922 14.3672C14.0703 14.3203 14.1406 14.2656 14.2031 14.2031C14.2656 14.1406 14.3203 14.0703 14.3672 13.9922C14.4141 13.9141 14.4479 13.8333 14.4687 13.75C14.4896 13.6667 14.5 13.5807 14.5 13.4922C14.5 13.4036 14.4896 13.3177 14.4687 13.2344Z" fill="white"/>
</svg>
