<svg width="20" height="21" viewBox="0 0 20 21" fill="none" xmlns="http://www.w3.org/2000/svg">
<path d="M16.0938 11.5078C16.0938 12.4766 15.9062 13.3984 15.5312 14.2734C15.1719 15.1328 14.668 15.8828 14.0195 16.5234C13.3711 17.1641 12.6172 17.6719 11.7578 18.0469C10.8984 18.4219 9.97656 18.6094 8.99219 18.6094C8.02344 18.6094 7.10156 18.4219 6.22656 18.0469C5.36719 17.6719 4.61719 17.1641 3.97656 16.5234C3.33594 15.8828 2.82812 15.1328 2.45312 14.2734C2.07812 13.3984 1.89062 12.4766 1.89062 11.5078C1.89062 10.5234 2.07812 9.60156 2.45312 8.74219C2.82812 7.88281 3.33594 7.12891 3.97656 6.48047C4.61719 5.83203 5.36719 5.32813 6.22656 4.96875C7.10156 4.59375 8.02344 4.40625 8.99219 4.40625C9.97656 4.40625 10.8984 4.59375 11.7578 4.96875C12.6172 5.32813 13.3711 5.83203 14.0195 6.48047C14.668 7.12891 15.1719 7.88281 15.5312 8.74219C15.9062 9.60156 16.0938 10.5234 16.0938 11.5078ZM17.8984 11.5078C17.8984 10.2734 17.6641 9.11719 17.1953 8.03906C16.7266 6.96094 16.0898 6.01953 15.2852 5.21484C14.4805 4.41016 13.5391 3.77344 12.4609 3.30469C11.3828 2.83594 10.2266 2.60156 8.99219 2.60156C7.77344 2.60156 6.625 2.83594 5.54688 3.30469C4.45312 3.77344 3.50391 4.41016 2.69922 5.21484C1.89453 6.01953 1.25781 6.96094 0.789062 8.03906C0.335937 9.11719 0.109375 10.2734 0.109375 11.5078C0.109375 12.7266 0.335937 13.875 0.789062 14.9531C1.25781 16.0469 1.89453 16.9961 2.69922 17.8008C3.50391 18.6055 4.45312 19.2422 5.54688 19.7109C6.625 20.1641 7.77344 20.3906 8.99219 20.3906C10.2266 20.3906 11.3828 20.1641 12.4609 19.7109C13.5391 19.2422 14.4805 18.6055 15.2852 17.8008C16.0898 16.9961 16.7266 16.0469 17.1953 14.9531C17.6641 13.875 17.8984 12.7266 17.8984 11.5078ZM14.0078 6.49219C14.1797 6.64844 14.3789 6.73437 14.6055 6.75C14.832 6.76562 15.0391 6.69531 15.2266 6.53906L15.2969 6.49219L19.6328 2.13281L19.7031 2.0625C19.8438 1.89063 19.9102 1.6875 19.9023 1.45313C19.8945 1.21875 19.8047 1.02344 19.6328 0.867187C19.4766 0.695312 19.2812 0.605469 19.0469 0.597656C18.8125 0.589844 18.6094 0.65625 18.4375 0.796875L18.3672 0.867187L14.0078 5.20313L13.9609 5.27344C13.8047 5.46094 13.7344 5.66797 13.75 5.89453C13.7656 6.12109 13.8516 6.32031 14.0078 6.49219Z" fill="#161616"/>
</svg>
