<svg width="16" height="9" viewBox="0 0 16 9" fill="none" xmlns="http://www.w3.org/2000/svg">
<path d="M1.08594 2.16406L7.33594 8.41406C7.375 8.45312 7.42057 8.49219 7.47266 8.53125C7.52474 8.57031 7.58333 8.59635 7.64844 8.60938C7.70052 8.63542 7.75586 8.65495 7.81445 8.66797C7.87305 8.68099 7.9349 8.6875 8 8.6875C8.0651 8.6875 8.12695 8.68099 8.18555 8.66797C8.24414 8.65495 8.29948 8.63542 8.35156 8.60938C8.41667 8.59635 8.47526 8.57031 8.52734 8.53125C8.57943 8.49219 8.625 8.45312 8.66406 8.41406L14.9141 2.16406C15.0052 2.07292 15.0736 1.96875 15.1191 1.85156C15.1647 1.73438 15.1875 1.61719 15.1875 1.5C15.1875 1.36979 15.1647 1.24935 15.1191 1.13867C15.0736 1.02799 15.0052 0.927083 14.9141 0.835938C14.8229 0.744792 14.722 0.676432 14.6113 0.630859C14.5007 0.585286 14.3802 0.5625 14.25 0.5625C14.1198 0.5625 13.9993 0.585286 13.8887 0.630859C13.778 0.676432 13.6771 0.744792 13.5859 0.835938L8 6.42188L2.41406 0.835938C2.32292 0.744792 2.22201 0.676432 2.11133 0.630859C2.00065 0.585286 1.88021 0.5625 1.75 0.5625C1.61979 0.5625 1.49935 0.585286 1.38867 0.630859C1.27799 0.676432 1.17708 0.744792 1.08594 0.835938C0.994792 0.927083 0.926432 1.02799 0.880859 1.13867C0.835286 1.24935 0.8125 1.36979 0.8125 1.5C0.8125 1.61719 0.835286 1.73438 0.880859 1.85156C0.926432 1.96875 0.994792 2.07292 1.08594 2.16406Z" fill="#161616"/>
</svg>
