<svg width="18" height="18" viewBox="0 0 18 18" fill="none" xmlns="http://www.w3.org/2000/svg">
<path d="M17.125 4.41016C17.3464 4.85286 17.5091 5.31836 17.6133 5.80664C17.7174 6.29492 17.763 6.78646 17.75 7.28125C17.737 7.77604 17.6654 8.26432 17.5352 8.74609C17.4049 9.22786 17.2227 9.6901 16.9883 10.1328C16.7409 10.5625 16.4512 10.9629 16.1191 11.334C15.7871 11.7051 15.4128 12.0273 14.9961 12.3008C14.5924 12.5742 14.1563 12.7988 13.6875 12.9746C13.2188 13.1504 12.737 13.2708 12.2422 13.3359C12.0859 13.7135 11.8874 14.0716 11.6465 14.4102C11.4056 14.7487 11.1354 15.0677 10.8359 15.3672C10.5365 15.6536 10.2142 15.9076 9.86914 16.1289C9.52409 16.3503 9.15625 16.5391 8.76563 16.6953C8.375 16.8385 7.97461 16.946 7.56445 17.0176C7.1543 17.0892 6.74089 17.1185 6.32422 17.1055C5.90755 17.0924 5.4974 17.0404 5.09375 16.9492C4.6901 16.8581 4.29948 16.7279 3.92188 16.5586C3.54427 16.3763 3.1862 16.1647 2.84766 15.9238C2.50911 15.6829 2.19661 15.4128 1.91016 15.1133C1.63672 14.8008 1.39258 14.4688 1.17773 14.1172C0.962891 13.7656 0.783854 13.3945 0.640625 13.0039C0.497396 12.6133 0.393229 12.2096 0.328125 11.793C0.263021 11.3763 0.24349 10.9661 0.269531 10.5625C0.282552 10.1458 0.341146 9.73568 0.445313 9.33203C0.549479 8.92839 0.692708 8.53776 0.875 8.16016L0.308594 6.22656C0.269531 6.1224 0.25 6.01497 0.25 5.9043C0.25 5.79362 0.263021 5.67969 0.289063 5.5625C0.315104 5.45833 0.357422 5.35742 0.416016 5.25977C0.474609 5.16211 0.542969 5.07422 0.621094 4.99609C0.699219 4.91797 0.787109 4.84961 0.884766 4.79102C0.982422 4.73242 1.08333 4.6901 1.1875 4.66406C1.30469 4.63802 1.41862 4.625 1.5293 4.625C1.63997 4.625 1.7474 4.64453 1.85156 4.68359L3.78516 5.25C4.09766 5.09375 4.41667 4.9668 4.74219 4.86914C5.06771 4.77148 5.40625 4.70313 5.75781 4.66406C5.91406 4.27344 6.11263 3.9056 6.35352 3.56055C6.5944 3.21549 6.87109 2.89974 7.18359 2.61328C7.48307 2.3138 7.81185 2.05339 8.16992 1.83203C8.528 1.61068 8.90886 1.42187 9.3125 1.26562C9.70313 1.1224 10.1068 1.01823 10.5234 0.953125C10.9401 0.888021 11.3633 0.861979 11.793 0.875C12.2096 0.901042 12.623 0.966146 13.0332 1.07031C13.4434 1.17448 13.8372 1.31771 14.2148 1.5L16.1484 0.933594C16.2526 0.894531 16.36 0.875 16.4707 0.875C16.5814 0.875 16.6953 0.888021 16.8125 0.914062C16.9167 0.940104 17.0176 0.982422 17.1152 1.04102C17.2129 1.09961 17.3008 1.16797 17.3789 1.24609C17.457 1.32422 17.5254 1.41211 17.584 1.50977C17.6426 1.60742 17.6849 1.70833 17.7109 1.8125C17.737 1.92969 17.75 2.04362 17.75 2.1543C17.75 2.26497 17.7305 2.3724 17.6914 2.47656L17.125 4.41016ZM3.84375 6.53906C3.81771 6.53906 3.78841 6.53581 3.75586 6.5293C3.72331 6.52279 3.69401 6.51953 3.66797 6.51953L1.5 5.875L2.14453 8.04297C2.15755 8.12109 2.16081 8.20247 2.1543 8.28711C2.14779 8.37174 2.125 8.44661 2.08594 8.51172C1.79948 9.04557 1.61719 9.60872 1.53906 10.2012C1.46094 10.7936 1.48698 11.3828 1.61719 11.9688C1.7474 12.5547 1.97526 13.0983 2.30078 13.5996C2.6263 14.1009 3.02995 14.5273 3.51172 14.8789C3.99349 15.2435 4.52409 15.5072 5.10352 15.6699C5.68294 15.8327 6.27214 15.8945 6.87109 15.8555C7.47005 15.8164 8.03971 15.6699 8.58008 15.416C9.12044 15.1621 9.60547 14.8268 10.0352 14.4102C10.4648 13.9805 10.8034 13.4922 11.0508 12.9453C11.2982 12.3984 11.4414 11.832 11.4805 11.2461C11.5326 10.6471 11.474 10.0579 11.3047 9.47852C11.1354 8.89909 10.875 8.36849 10.5234 7.88672C10.1589 7.40495 9.72591 7.0013 9.22461 6.67578C8.72331 6.35026 8.17969 6.1224 7.59375 5.99219C7.00781 5.86198 6.41862 5.83594 5.82617 5.91406C5.23372 5.99219 4.67057 6.17448 4.13672 6.46094C4.09766 6.48698 4.05208 6.50651 4 6.51953C3.94792 6.53255 3.89583 6.53906 3.84375 6.53906ZM15.8555 4.29297L16.5 2.125L14.332 2.76953C14.2539 2.78255 14.1758 2.78581 14.0977 2.7793C14.0195 2.77279 13.9414 2.75 13.8633 2.71094C13.2904 2.41146 12.6784 2.22591 12.0273 2.1543C11.3763 2.08268 10.7383 2.13802 10.1133 2.32031C9.48828 2.5026 8.91862 2.79557 8.4043 3.19922C7.88997 3.60286 7.47656 4.09115 7.16406 4.66406C7.58073 4.70313 7.99414 4.78776 8.4043 4.91797C8.81445 5.04818 9.20833 5.22396 9.58594 5.44531C9.96354 5.65365 10.3118 5.90104 10.6309 6.1875C10.9499 6.47396 11.2396 6.78646 11.5 7.125C11.7604 7.46354 11.9818 7.82812 12.1641 8.21875C12.3464 8.60937 12.4896 9.01302 12.5938 9.42969C12.6849 9.85937 12.737 10.2891 12.75 10.7187C12.763 11.1484 12.7305 11.5716 12.6523 11.9883C13.0169 11.8971 13.3717 11.7669 13.7168 11.5977C14.0619 11.4284 14.3841 11.2266 14.6836 10.9922C14.9831 10.7448 15.2467 10.4681 15.4746 10.1621C15.7025 9.85612 15.8945 9.52734 16.0508 9.17578C16.2201 8.83724 16.3405 8.47917 16.4121 8.10156C16.4837 7.72396 16.513 7.33984 16.5 6.94922C16.487 6.57161 16.4316 6.19727 16.334 5.82617C16.2363 5.45508 16.0964 5.10026 15.9141 4.76172C15.875 4.69661 15.8522 4.62174 15.8457 4.53711C15.8392 4.45247 15.8424 4.37109 15.8555 4.29297Z" fill="white"/>
</svg>
