<svg width="24" height="24" viewBox="0 0 24 24" fill="none" xmlns="http://www.w3.org/2000/svg">
<path d="M23.375 12C23.375 10.6146 23.1289 9.27018 22.6367 7.9668C22.1445 6.66341 21.4336 5.49219 20.5039 4.45312C19.5924 3.41406 18.5169 2.57096 17.2773 1.92383C16.0378 1.27669 14.7344 0.871094 13.3672 0.707031C13.3307 0.707031 13.2988 0.707031 13.2715 0.707031C13.2441 0.707031 13.2122 0.716146 13.1758 0.734375C13.1576 0.734375 13.1348 0.74349 13.1074 0.761719C13.0801 0.779948 13.0482 0.798177 13.0117 0.816406C12.9935 0.834635 12.9753 0.857422 12.957 0.884766C12.9388 0.912109 12.9206 0.934896 12.9023 0.953125C12.9023 0.989583 12.8978 1.02148 12.8887 1.04883C12.8796 1.07617 12.875 1.10807 12.875 1.14453V9.375H15.5C15.5547 9.375 15.6139 9.37956 15.6777 9.38867C15.7415 9.39779 15.8008 9.42057 15.8555 9.45703C15.9102 9.47526 15.9603 9.5026 16.0059 9.53906C16.0514 9.57552 16.0924 9.61198 16.1289 9.64844C16.1836 9.70312 16.2246 9.75326 16.252 9.79883C16.2793 9.8444 16.3021 9.89453 16.3203 9.94922C16.3385 10.0039 16.3522 10.0632 16.3613 10.127C16.3704 10.1908 16.375 10.25 16.375 10.3047C16.3568 10.4141 16.3249 10.5189 16.2793 10.6191C16.2337 10.7194 16.1654 10.8151 16.0742 10.9062C16.0013 10.9792 15.9102 11.0339 15.8008 11.0703C15.6914 11.1068 15.582 11.125 15.4727 11.125H12.875V13.75C12.875 13.987 12.9206 14.2103 13.0117 14.4199C13.1029 14.6296 13.2305 14.8164 13.3945 14.9805C13.5586 15.1445 13.7454 15.2721 13.9551 15.3633C14.1647 15.4544 14.388 15.5 14.625 15.5H16.375C16.4297 15.5 16.4889 15.5046 16.5527 15.5137C16.6165 15.5228 16.6758 15.5456 16.7305 15.582C16.7852 15.6003 16.8353 15.6276 16.8809 15.6641C16.9264 15.7005 16.9674 15.737 17.0039 15.7734C17.0586 15.8281 17.0996 15.8783 17.127 15.9238C17.1543 15.9694 17.1771 16.0195 17.1953 16.0742C17.2135 16.1289 17.2272 16.1882 17.2363 16.252C17.2454 16.3158 17.25 16.375 17.25 16.4297C17.2318 16.5391 17.1999 16.6439 17.1543 16.7441C17.1087 16.8444 17.0404 16.9401 16.9492 17.0312C16.8763 17.1042 16.7852 17.1589 16.6758 17.1953C16.5664 17.2318 16.457 17.25 16.3477 17.25H14.625C14.1693 17.25 13.7227 17.1634 13.2852 16.9902C12.8477 16.8171 12.4648 16.5664 12.1367 16.2383C11.8086 15.9102 11.5579 15.5319 11.3848 15.1035C11.2116 14.6751 11.125 14.224 11.125 13.75V11.125H8.5C8.44531 11.125 8.38607 11.1204 8.32227 11.1113C8.25846 11.1022 8.19922 11.0794 8.14453 11.043C8.08984 11.0247 8.03971 10.9974 7.99414 10.9609C7.94857 10.9245 7.90755 10.888 7.87109 10.8516C7.81641 10.8151 7.77539 10.7695 7.74805 10.7148C7.7207 10.6602 7.69792 10.6055 7.67969 10.5508C7.66146 10.4961 7.64779 10.4368 7.63867 10.373C7.62956 10.3092 7.625 10.25 7.625 10.1953C7.64323 10.0859 7.67513 9.98112 7.7207 9.88086C7.76628 9.7806 7.83464 9.6849 7.92578 9.59375C7.9987 9.52083 8.08984 9.46615 8.19922 9.42969C8.30859 9.39323 8.41797 9.375 8.52734 9.375H11.125V1.14453C11.125 1.10807 11.1204 1.07617 11.1113 1.04883C11.1022 1.02148 11.0977 0.989583 11.0977 0.953125C11.0794 0.934896 11.0612 0.912109 11.043 0.884766C11.0247 0.857422 11.0065 0.834635 10.9883 0.816406C10.9518 0.798177 10.9245 0.779948 10.9062 0.761719C10.888 0.74349 10.8607 0.734375 10.8242 0.734375C10.7878 0.716146 10.7559 0.707031 10.7285 0.707031C10.7012 0.707031 10.6693 0.707031 10.6328 0.707031C9.22917 0.871094 7.89844 1.29036 6.64063 1.96484C5.38281 2.63932 4.28906 3.52344 3.35938 4.61719C2.42969 5.71094 1.72786 6.92773 1.25391 8.26758C0.779948 9.60742 0.570312 10.9974 0.625 12.4375C0.679687 13.9141 1.00781 15.2995 1.60937 16.5938C2.19271 17.9062 2.97656 19.0501 3.96094 20.0254C4.94531 21.0007 6.08464 21.7891 7.37891 22.3906C8.67318 22.9922 10.0586 23.3203 11.5352 23.375C12.3008 23.3932 13.0618 23.3431 13.8184 23.2246C14.5749 23.1061 15.3177 22.9102 16.0469 22.6367C16.7578 22.3633 17.4368 22.0215 18.084 21.6113C18.7311 21.2012 19.3281 20.7318 19.875 20.2031C20.4219 19.6745 20.9141 19.0957 21.3516 18.4668C21.7891 17.8379 22.1628 17.168 22.4727 16.457C22.7643 15.7461 22.9876 15.0169 23.1426 14.2695C23.2975 13.5221 23.375 12.7656 23.375 12Z" fill="#161616"/>
</svg>
