<svg width="32" height="32" viewBox="0 0 32 32" fill="none" xmlns="http://www.w3.org/2000/svg">
<path d="M23.125 31.4375H8.875C7.76172 31.4375 6.69792 31.2272 5.68359 30.8066C4.66927 30.3861 3.77865 29.7799 3.01172 28.9883C2.22005 28.2214 1.61393 27.3307 1.19336 26.3164C0.772786 25.3021 0.5625 24.2383 0.5625 23.125V8.875C0.5625 7.76172 0.772786 6.69792 1.19336 5.68359C1.61393 4.66927 2.22005 3.77865 3.01172 3.01172C3.77865 2.22005 4.66927 1.61393 5.68359 1.19336C6.69792 0.772786 7.76172 0.5625 8.875 0.5625H23.125C24.2383 0.5625 25.3021 0.772786 26.3164 1.19336C27.3307 1.61393 28.2214 2.22005 28.9883 3.01172C29.7799 3.77865 30.3861 4.66927 30.8066 5.68359C31.2272 6.69792 31.4375 7.76172 31.4375 8.875V23.125C31.4375 24.2383 31.2272 25.3021 30.8066 26.3164C30.3861 27.3307 29.7799 28.2214 28.9883 28.9883C28.2214 29.7799 27.3307 30.3861 26.3164 30.8066C25.3021 31.2272 24.2383 31.4375 23.125 31.4375ZM16 8.875C15.3073 8.875 14.6208 8.98014 13.9404 9.19043C13.2601 9.40072 12.623 9.69141 12.0293 10.0625C11.4603 10.4583 10.9531 10.9284 10.5078 11.4727C10.0625 12.0169 9.70378 12.623 9.43164 13.291C9.15951 13.9342 8.98633 14.6084 8.91211 15.3135C8.83789 16.0186 8.875 16.7051 9.02344 17.373C9.14714 18.0658 9.37598 18.7275 9.70996 19.3584C10.0439 19.9893 10.4583 20.5521 10.9531 21.0469C11.4479 21.5417 12.0107 21.9561 12.6416 22.29C13.2725 22.624 13.9342 22.8529 14.627 22.9766C15.2949 23.125 15.9814 23.1621 16.6865 23.0879C17.3916 23.0137 18.0658 22.8405 18.709 22.5684C19.377 22.2962 19.9831 21.9375 20.5273 21.4922C21.0716 21.0469 21.5417 20.5397 21.9375 19.9707C22.3086 19.377 22.5993 18.7399 22.8096 18.0596C23.0199 17.3792 23.125 16.6927 23.125 16C23.125 15.0599 22.9456 14.1507 22.5869 13.2725C22.2282 12.3942 21.7148 11.6211 21.0469 10.9531C20.3789 10.2852 19.6058 9.77181 18.7275 9.41309C17.8493 9.05436 16.9401 8.875 16 8.875ZM24.9062 23.125C24.7331 23.125 24.5599 23.1497 24.3867 23.1992C24.2135 23.2487 24.0527 23.3229 23.9043 23.4219C23.7559 23.5208 23.626 23.6383 23.5146 23.7744C23.4033 23.9105 23.3229 24.0651 23.2734 24.2383C23.1992 24.3867 23.1559 24.5475 23.1436 24.7207C23.1312 24.8939 23.1374 25.0671 23.1621 25.2402C23.1868 25.4134 23.2425 25.5804 23.3291 25.7412C23.4157 25.902 23.5208 26.0443 23.6445 26.168C23.7682 26.2917 23.9105 26.3968 24.0713 26.4834C24.2321 26.57 24.3991 26.6257 24.5723 26.6504C24.7454 26.6751 24.9186 26.6813 25.0918 26.6689C25.265 26.6566 25.4258 26.6133 25.5742 26.5391C25.7474 26.4896 25.902 26.4092 26.0381 26.2979C26.1742 26.1865 26.2917 26.0566 26.3906 25.9082C26.4896 25.7598 26.5638 25.599 26.6133 25.4258C26.6628 25.2526 26.6875 25.0794 26.6875 24.9062C26.6875 24.6589 26.6442 24.43 26.5576 24.2197C26.471 24.0094 26.3411 23.8177 26.168 23.6445C25.9948 23.4714 25.8031 23.3415 25.5928 23.2549C25.3825 23.1683 25.1536 23.125 24.9062 23.125ZM20.75 16C20.75 15.5299 20.682 15.0723 20.5459 14.627C20.4098 14.1816 20.2057 13.7611 19.9336 13.3652C19.6862 12.9694 19.3831 12.623 19.0244 12.3262C18.6657 12.0293 18.2637 11.7943 17.8184 11.6211C17.373 11.4232 16.9215 11.3057 16.4639 11.2686C16.0062 11.2314 15.5423 11.25 15.0723 11.3242C14.6022 11.4232 14.1631 11.584 13.7549 11.8066C13.3467 12.0293 12.9694 12.3014 12.623 12.623C12.3014 12.9694 12.0293 13.3467 11.8066 13.7549C11.584 14.1631 11.4232 14.6022 11.3242 15.0723C11.25 15.5423 11.2314 16.0062 11.2686 16.4639C11.3057 16.9215 11.4232 17.373 11.6211 17.8184C11.7943 18.2637 12.0293 18.6657 12.3262 19.0244C12.623 19.3831 12.9694 19.6862 13.3652 19.9336C13.7611 20.2057 14.1816 20.4098 14.627 20.5459C15.0723 20.682 15.5299 20.75 16 20.75C16.6185 20.75 17.2246 20.6325 17.8184 20.3975C18.4121 20.1624 18.9316 19.8223 19.377 19.377C19.8223 18.9316 20.1624 18.4121 20.3975 17.8184C20.6325 17.2246 20.75 16.6185 20.75 16Z" fill="#161616"/>
</svg>
