<svg width="22" height="28" viewBox="0 0 22 28" fill="none" xmlns="http://www.w3.org/2000/svg">
<path d="M0.356731 27.6317V0.197471H11.9401C12.2068 0.197471 12.5624 0.210175 13.007 0.235574C13.4642 0.248278 13.8706 0.286381 14.2263 0.349884C15.8647 0.603902 17.2046 1.1437 18.2461 1.96927C19.3003 2.79483 20.0751 3.83632 20.5704 5.09372C21.0658 6.33845 21.3134 7.72921 21.3134 9.26599C21.3134 11.5649 20.7419 13.5335 19.5988 15.172C18.4557 16.7978 16.6649 17.8011 14.2263 18.1821L11.9401 18.3345H5.53875V27.6317H0.356731ZM15.8266 27.6317L10.4159 16.4675L15.7504 15.4387L21.6945 27.6317H15.8266ZM5.53875 13.4954H11.7115C11.9782 13.4954 12.2703 13.4828 12.5878 13.4573C12.9054 13.432 13.1975 13.3811 13.4642 13.3049C14.1628 13.1144 14.7025 12.7969 15.0836 12.3523C15.4646 11.8951 15.725 11.3934 15.8647 10.8473C16.0171 10.2884 16.0933 9.76133 16.0933 9.26599C16.0933 8.77065 16.0171 8.24993 15.8647 7.70377C15.725 7.14494 15.4646 6.64328 15.0836 6.19869C14.7025 5.74147 14.1628 5.4176 13.4642 5.22708C13.1975 5.15087 12.9054 5.10007 12.5878 5.07467C12.2703 5.04927 11.9782 5.03656 11.7115 5.03656H5.53875V13.4954Z" fill="#161616"/>
</svg>
