<svg width="23" height="23" viewBox="0 0 23 23" fill="none" xmlns="http://www.w3.org/2000/svg">
<path d="M22.7578 11.5352C22.7396 10.0039 22.4388 8.55469 21.8555 7.1875C21.2539 5.82031 20.4427 4.6263 19.4219 3.60547C18.401 2.58464 17.207 1.77344 15.8398 1.17187C14.4909 0.570312 13.0417 0.260417 11.4922 0.242188C11.0182 0.242188 10.5443 0.269531 10.0703 0.324219C9.59635 0.378906 9.1224 0.460937 8.64844 0.570312C8.63021 0.588542 8.60742 0.602214 8.58008 0.611328C8.55273 0.620443 8.52995 0.634115 8.51172 0.652344C8.47526 0.670573 8.44792 0.688802 8.42969 0.707031C8.41146 0.72526 8.39323 0.752604 8.375 0.789062C8.375 0.807292 8.36589 0.830078 8.34766 0.857422C8.32943 0.884766 8.32031 0.916667 8.32031 0.953125C8.32031 0.971354 8.32031 0.994141 8.32031 1.02148C8.32031 1.04883 8.32943 1.08073 8.34766 1.11719L9.27734 4.89062C9.73307 4.65365 10.2116 4.47591 10.7129 4.35742C11.2142 4.23893 11.7292 4.17969 12.2578 4.17969C13.2604 4.17969 14.2083 4.39844 15.1016 4.83594C15.9766 5.25521 16.7331 5.82943 17.3711 6.55859C18.0091 7.28776 18.5013 8.14453 18.8477 9.12891C19.1758 10.0951 19.3034 11.125 19.2305 12.2187C19.194 12.7839 19.0938 13.3353 18.9297 13.873C18.7656 14.4108 18.5469 14.9349 18.2734 15.4453C17.9818 15.9375 17.6491 16.3978 17.2754 16.8262C16.9017 17.2546 16.487 17.6328 16.0312 17.9609C15.5755 18.3073 15.0879 18.5944 14.5684 18.8223C14.0488 19.0501 13.5156 19.2187 12.9688 19.3281C12.4036 19.4375 11.8385 19.4922 11.2734 19.4922C10.7083 19.4922 10.1432 19.4193 9.57812 19.2734C9.03125 19.1458 8.5026 18.9635 7.99219 18.7266C7.48177 18.4896 6.9987 18.1888 6.54297 17.8242C6.08724 17.4779 5.68164 17.0859 5.32617 16.6484C4.9707 16.2109 4.65625 15.7461 4.38281 15.2539C4.1276 14.7435 3.92708 14.2148 3.78125 13.668C3.63542 13.1211 3.54427 12.5651 3.50781 12C3.48958 11.4349 3.52604 10.8698 3.61719 10.3047C3.70833 9.73958 3.86328 9.19271 4.08203 8.66406C4.10026 8.60937 4.12305 8.55924 4.15039 8.51367C4.17773 8.4681 4.21875 8.42708 4.27344 8.39062C4.3099 8.33594 4.35547 8.29492 4.41016 8.26758C4.46484 8.24023 4.51953 8.20833 4.57422 8.17187C4.62891 8.15365 4.68359 8.13997 4.73828 8.13086C4.79297 8.12174 4.84766 8.11719 4.90234 8.11719C4.95703 8.11719 5.01628 8.1263 5.08008 8.14453C5.14388 8.16276 5.20312 8.18099 5.25781 8.19922C5.34896 8.25391 5.43555 8.32227 5.51758 8.4043C5.59961 8.48633 5.65885 8.58203 5.69531 8.69141C5.73177 8.80078 5.75 8.91016 5.75 9.01953C5.75 9.12891 5.73177 9.23828 5.69531 9.34766C5.53125 9.76693 5.41276 10.1908 5.33984 10.6191C5.26693 11.0475 5.23958 11.4896 5.25781 11.9453C5.27604 12.3828 5.3444 12.8112 5.46289 13.2305C5.58138 13.6497 5.74089 14.0599 5.94141 14.4609C6.16016 14.8437 6.41081 15.2038 6.69336 15.541C6.97591 15.8783 7.29036 16.1836 7.63672 16.457C7.98307 16.7305 8.35677 16.9629 8.75781 17.1543C9.15885 17.3457 9.56901 17.487 9.98828 17.5781C10.4258 17.6875 10.8633 17.7422 11.3008 17.7422C11.7383 17.7422 12.1758 17.6966 12.6133 17.6055C13.0508 17.5326 13.4701 17.4049 13.8711 17.2227C14.2721 17.0404 14.6549 16.8125 15.0195 16.5391C15.3659 16.2839 15.6849 15.9922 15.9766 15.6641C16.2682 15.3359 16.5234 14.9805 16.7422 14.5977C16.9609 14.1966 17.1296 13.7865 17.248 13.3672C17.3665 12.9479 17.444 12.5195 17.4805 12.082C17.5352 11.2435 17.4349 10.4505 17.1797 9.70312C16.9427 8.95573 16.5827 8.30404 16.0996 7.74805C15.6165 7.19206 15.0469 6.75 14.3906 6.42187C13.7161 6.09375 13.0052 5.92969 12.2578 5.92969C11.8021 5.92969 11.36 5.98893 10.9316 6.10742C10.5033 6.22591 10.0977 6.40365 9.71484 6.64062L11.3555 13.1758C11.3737 13.2852 11.3737 13.3945 11.3555 13.5039C11.3372 13.6133 11.3008 13.7135 11.2461 13.8047C11.1914 13.9141 11.1139 14.0007 11.0137 14.0645C10.9134 14.1283 10.8086 14.1784 10.6992 14.2148C10.5898 14.2331 10.4805 14.2376 10.3711 14.2285C10.2617 14.2194 10.1523 14.1784 10.043 14.1055C9.95182 14.0508 9.86979 13.9779 9.79688 13.8867C9.72396 13.7956 9.67839 13.6953 9.66016 13.5859L6.70703 1.82812C6.70703 1.79167 6.69792 1.75977 6.67969 1.73242C6.66146 1.70508 6.64323 1.68229 6.625 1.66406C6.60677 1.6276 6.58398 1.60026 6.55664 1.58203C6.5293 1.5638 6.4974 1.55469 6.46094 1.55469C6.44271 1.53646 6.41536 1.52279 6.37891 1.51367C6.34245 1.50456 6.30599 1.5 6.26953 1.5C6.2513 1.5 6.22396 1.50456 6.1875 1.51367C6.15104 1.52279 6.11458 1.53646 6.07812 1.55469C5.16667 2.04687 4.32812 2.65299 3.5625 3.37305C2.79688 4.0931 2.14974 4.89974 1.62109 5.79297C1.07422 6.6862 0.664062 7.63867 0.390625 8.65039C0.117188 9.66211 -0.0104167 10.6966 0.0078125 11.7539C0.0260417 13.2852 0.326823 14.7344 0.910156 16.1016C1.51172 17.4505 2.32292 18.6354 3.34375 19.6562C4.36458 20.6771 5.55859 21.4883 6.92578 22.0898C8.27474 22.6732 9.72396 22.974 11.2734 22.9922C12.0208 23.0104 12.7637 22.9466 13.502 22.8008C14.2402 22.6549 14.9648 22.4362 15.6758 22.1445C16.3685 21.8711 17.0293 21.5247 17.6582 21.1055C18.2871 20.6862 18.8659 20.2122 19.3945 19.6836C19.9414 19.1549 20.4245 18.5762 20.8438 17.9473C21.263 17.3184 21.6185 16.6484 21.9102 15.9375C22.1836 15.2448 22.3932 14.5293 22.5391 13.791C22.6849 13.0527 22.7578 12.3008 22.7578 11.5352Z" fill="#161616"/>
</svg>
