<svg width="20" height="14" viewBox="0 0 20 14" fill="none" xmlns="http://www.w3.org/2000/svg">
<path d="M19.3164 7.25391C19.3034 7.27995 19.1243 7.60221 18.7793 8.2207C18.4342 8.83919 17.8971 9.51953 17.168 10.2617C16.6732 10.7435 16.1523 11.1732 15.6055 11.5508C15.0456 11.9284 14.4661 12.2409 13.8672 12.4883C13.2682 12.7357 12.6432 12.9245 11.9922 13.0547C11.3411 13.1849 10.6771 13.25 10 13.25C9.32292 13.25 8.65885 13.1849 8.00781 13.0547C7.35677 12.9245 6.73177 12.7357 6.13281 12.4883C5.53385 12.2409 4.95443 11.9284 4.39453 11.5508C3.84766 11.1732 3.32682 10.7435 2.83203 10.2617C2.10286 9.51953 1.56576 8.83919 1.2207 8.2207C0.875651 7.60221 0.696615 7.27995 0.683594 7.25391C0.657552 7.21484 0.641276 7.17253 0.634766 7.12695C0.628255 7.08138 0.625 7.03906 0.625 7C0.625 6.96094 0.628255 6.91862 0.634766 6.87305C0.641276 6.82747 0.657552 6.78516 0.683594 6.74609C0.696615 6.72005 0.875651 6.39779 1.2207 5.7793C1.56576 5.16081 2.10286 4.48047 2.83203 3.73828C3.32682 3.25651 3.84766 2.82682 4.39453 2.44922C4.95443 2.07161 5.53385 1.75911 6.13281 1.51172C6.73177 1.26432 7.35677 1.07552 8.00781 0.945312C8.65885 0.815104 9.32292 0.75 10 0.75C10.6771 0.75 11.3411 0.815104 11.9922 0.945312C12.6432 1.07552 13.2682 1.26432 13.8672 1.51172C14.4661 1.75911 15.0456 2.07161 15.6055 2.44922C16.1523 2.82682 16.6732 3.25651 17.168 3.73828C17.8971 4.48047 18.4342 5.16081 18.7793 5.7793C19.1243 6.39779 19.3034 6.72005 19.3164 6.74609C19.3424 6.78516 19.3587 6.82747 19.3652 6.87305C19.3717 6.91862 19.375 6.96094 19.375 7C19.375 7.03906 19.3717 7.08138 19.3652 7.12695C19.3587 7.17253 19.3424 7.21484 19.3164 7.25391ZM10 2C9.40104 2 8.82161 2.05208 8.26172 2.15625C7.6888 2.27344 7.14193 2.43945 6.62109 2.6543C6.10026 2.86914 5.59896 3.13932 5.11719 3.46484C4.64844 3.79036 4.19271 4.16797 3.75 4.59766C3.39844 4.94922 3.06966 5.32682 2.76367 5.73047C2.45768 6.13411 2.1875 6.55729 1.95312 7C2.1875 7.44271 2.45768 7.86589 2.76367 8.26953C3.06966 8.67318 3.39844 9.05078 3.75 9.40234C4.19271 9.83203 4.64844 10.2096 5.11719 10.5352C5.59896 10.8607 6.10026 11.1309 6.62109 11.3457C7.14193 11.5605 7.6888 11.7266 8.26172 11.8438C8.82161 11.9479 9.40104 12 10 12C10.599 12 11.1784 11.9479 11.7383 11.8438C12.3112 11.7266 12.8581 11.5605 13.3789 11.3457C13.8997 11.1309 14.401 10.8607 14.8828 10.5352C15.3516 10.2096 15.8073 9.83203 16.25 9.40234C16.6016 9.05078 16.9303 8.67318 17.2363 8.26953C17.5423 7.86589 17.8125 7.44271 18.0469 7C17.9036 6.73958 17.6432 6.32943 17.2656 5.76953C16.875 5.22266 16.3542 4.66927 15.7031 4.10938C15.0521 3.54948 14.2513 3.05469 13.3008 2.625C12.3633 2.20833 11.263 2 10 2ZM10 10.75C9.63542 10.75 9.27409 10.6947 8.91602 10.584C8.55794 10.4733 8.22266 10.3203 7.91016 10.125C7.61068 9.91667 7.34375 9.66927 7.10938 9.38281C6.875 9.09635 6.6862 8.77734 6.54297 8.42578C6.39974 8.08724 6.30859 7.73242 6.26953 7.36133C6.23047 6.99023 6.25 6.62891 6.32812 6.27734C6.39323 5.91276 6.51367 5.56445 6.68945 5.23242C6.86523 4.90039 7.08333 4.60417 7.34375 4.34375C7.60417 4.08333 7.90039 3.86523 8.23242 3.68945C8.56445 3.51367 8.91276 3.39323 9.27734 3.32812C9.62891 3.25 9.99023 3.23047 10.3613 3.26953C10.7324 3.30859 11.0872 3.39974 11.4258 3.54297C11.7773 3.6862 12.0964 3.875 12.3828 4.10938C12.6693 4.34375 12.9167 4.61068 13.125 4.91016C13.3203 5.22266 13.4733 5.55794 13.584 5.91602C13.6947 6.27409 13.75 6.63542 13.75 7C13.75 7.49479 13.6556 7.97331 13.4668 8.43555C13.278 8.89779 13.0078 9.30469 12.6562 9.65625C12.3047 10.0078 11.8978 10.278 11.4355 10.4668C10.9733 10.6556 10.4948 10.75 10 10.75ZM10 4.5C9.7526 4.5 9.51172 4.53581 9.27734 4.60742C9.04297 4.67904 8.82161 4.78646 8.61328 4.92969C8.40495 5.0599 8.22266 5.2194 8.06641 5.4082C7.91016 5.59701 7.78646 5.80859 7.69531 6.04297C7.59115 6.27734 7.5293 6.51497 7.50977 6.75586C7.49023 6.99674 7.5 7.24089 7.53906 7.48828C7.59115 7.73568 7.67578 7.9668 7.79297 8.18164C7.91016 8.39648 8.05339 8.59505 8.22266 8.77734C8.40495 8.94661 8.60352 9.08984 8.81836 9.20703C9.0332 9.32422 9.26432 9.40885 9.51172 9.46094C9.75911 9.5 10.0033 9.50977 10.2441 9.49023C10.485 9.4707 10.7227 9.40885 10.957 9.30469C11.1914 9.21354 11.403 9.08984 11.5918 8.93359C11.7806 8.77734 11.9401 8.59505 12.0703 8.38672C12.2135 8.17839 12.321 7.95703 12.3926 7.72266C12.4642 7.48828 12.5 7.2474 12.5 7C12.5 6.67448 12.4382 6.35547 12.3145 6.04297C12.1908 5.73047 12.0117 5.45703 11.7773 5.22266C11.543 4.98828 11.2695 4.80924 10.957 4.68555C10.6445 4.56185 10.3255 4.5 10 4.5Z" fill="white"/>
</svg>
