<svg width="12" height="15" viewBox="0 0 12 15" fill="none" xmlns="http://www.w3.org/2000/svg">
<path d="M6 12.5C5.40625 12.5 4.82552 12.4141 4.25781 12.2422C3.6901 12.0703 3.16146 11.8177 2.67187 11.4844C2.17187 11.1615 1.73438 10.7708 1.35938 10.3125C0.984375 9.85417 0.682292 9.34896 0.453125 8.79687C0.223958 8.24479 0.0807291 7.67448 0.0234375 7.08594C-0.0338542 6.4974 -0.00520837 5.91146 0.109375 5.32813C0.223958 4.74479 0.421875 4.19271 0.703125 3.67187C0.984375 3.15104 1.33333 2.67708 1.75 2.25C2.17708 1.83333 2.65104 1.48437 3.17187 1.20312C3.69271 0.921875 4.24479 0.723958 4.82813 0.609375C5.41146 0.494792 5.9974 0.466146 6.58594 0.523437C7.17448 0.580729 7.74479 0.723958 8.29687 0.953125C8.84896 1.18229 9.35417 1.48438 9.8125 1.85938C10.2708 2.23438 10.6615 2.67187 10.9844 3.17187C11.3177 3.66146 11.5703 4.1901 11.7422 4.75781C11.9141 5.32552 12 5.90625 12 6.5C12 7.29167 11.8464 8.05469 11.5391 8.78906C11.2318 9.52344 10.7969 10.1719 10.2344 10.7344C9.67187 11.2969 9.02344 11.7318 8.28906 12.0391C7.55469 12.3464 6.79167 12.5 6 12.5ZM6 1.5C5.51042 1.5 5.02865 1.57292 4.55469 1.71875C4.08073 1.86458 3.63542 2.07292 3.21875 2.34375C2.8125 2.61458 2.45312 2.94271 2.14062 3.32812C1.82812 3.71354 1.57292 4.13542 1.375 4.59375C1.1875 5.04167 1.07031 5.51302 1.02344 6.00781C0.976562 6.5026 1 6.98958 1.09375 7.46875C1.1875 7.95833 1.35156 8.42187 1.58594 8.85937C1.82031 9.29687 2.11458 9.6875 2.46875 10.0312C2.8125 10.3854 3.20312 10.6797 3.64062 10.9141C4.07812 11.1484 4.54167 11.3125 5.03125 11.4062C5.51042 11.5 5.9974 11.5234 6.49219 11.4766C6.98698 11.4297 7.45833 11.3125 7.90625 11.125C8.36458 10.9271 8.78646 10.6719 9.17187 10.3594C9.55729 10.0469 9.88542 9.6875 10.1562 9.28125C10.4271 8.86458 10.6354 8.41927 10.7812 7.94531C10.9271 7.47135 11 6.98958 11 6.5C11 5.83333 10.8724 5.19531 10.6172 4.58594C10.362 3.97656 10 3.4375 9.53125 2.96875C9.0625 2.5 8.52344 2.13802 7.91406 1.88281C7.30469 1.6276 6.66667 1.5 6 1.5ZM8.85937 9.35937C8.88021 9.32812 8.89844 9.29948 8.91406 9.27344C8.92969 9.2474 8.94792 9.21875 8.96875 9.1875C8.97917 9.15625 8.98698 9.125 8.99219 9.09375C8.9974 9.0625 9 9.03125 9 9C9 8.96875 8.9974 8.9375 8.99219 8.90625C8.98698 8.875 8.97917 8.84375 8.96875 8.8125C8.94792 8.78125 8.92969 8.7526 8.91406 8.72656C8.89844 8.70052 8.88021 8.67187 8.85937 8.64062L6.35938 6.14063C6.32813 6.11979 6.29948 6.10156 6.27344 6.08594C6.2474 6.07031 6.21875 6.05208 6.1875 6.03125C6.15625 6.02083 6.125 6.01302 6.09375 6.00781C6.0625 6.0026 6.03125 6 6 6C5.96875 6 5.9375 6.0026 5.90625 6.00781C5.875 6.01302 5.84375 6.02083 5.8125 6.03125C5.78125 6.05208 5.7526 6.07031 5.72656 6.08594C5.70052 6.10156 5.67188 6.11979 5.64063 6.14063C5.61979 6.17188 5.60156 6.20052 5.58594 6.22656C5.57031 6.2526 5.55208 6.28125 5.53125 6.3125C5.52083 6.34375 5.51302 6.375 5.50781 6.40625C5.5026 6.4375 5.5 6.46875 5.5 6.5C5.5 6.53125 5.5026 6.5625 5.50781 6.59375C5.51302 6.625 5.52083 6.65625 5.53125 6.6875C5.55208 6.71875 5.57031 6.7474 5.58594 6.77344C5.60156 6.79948 5.61979 6.82813 5.64063 6.85938L8.14062 9.35937C8.17187 9.38021 8.20052 9.39844 8.22656 9.41406C8.2526 9.42969 8.28125 9.44792 8.3125 9.46875C8.34375 9.47917 8.375 9.48698 8.40625 9.49219C8.4375 9.4974 8.46875 9.5 8.5 9.5C8.53125 9.5 8.5625 9.4974 8.59375 9.49219C8.625 9.48698 8.65625 9.47917 8.6875 9.46875C8.71875 9.44792 8.7474 9.42969 8.77344 9.41406C8.79948 9.39844 8.82812 9.38021 8.85937 9.35937ZM4 14C4 14.0625 4.01302 14.125 4.03906 14.1875C4.0651 14.25 4.09896 14.3073 4.14063 14.3594C4.19271 14.401 4.25 14.4349 4.3125 14.4609C4.375 14.487 4.4375 14.5 4.5 14.5H7.5C7.5625 14.5 7.625 14.487 7.6875 14.4609C7.75 14.4349 7.80729 14.401 7.85938 14.3594C7.90104 14.3073 7.9349 14.25 7.96094 14.1875C7.98698 14.125 8 14.0625 8 14C8 13.9375 7.98698 13.875 7.96094 13.8125C7.9349 13.75 7.90104 13.6927 7.85938 13.6406C7.80729 13.599 7.75 13.5651 7.6875 13.5391C7.625 13.513 7.5625 13.5 7.5 13.5H4.5C4.4375 13.5 4.375 13.513 4.3125 13.5391C4.25 13.5651 4.19271 13.599 4.14063 13.6406C4.09896 13.6927 4.0651 13.75 4.03906 13.8125C4.01302 13.875 4 13.9375 4 14Z" fill="white"/>
</svg>
