<svg width="27" height="30" viewBox="0 0 27 30" fill="none" xmlns="http://www.w3.org/2000/svg">
<path d="M13.6567 29.2032C10.9132 29.2032 8.54453 28.6063 6.55044 27.4124C4.56908 26.2185 3.03863 24.5483 1.95902 22.4018C0.892131 20.2554 0.358685 17.7596 0.358685 14.9146C0.358685 12.0696 0.892131 9.57381 1.95902 7.42731C3.03863 5.28086 4.56908 3.61067 6.55044 2.41677C8.54453 1.22288 10.9132 0.625926 13.6567 0.625926C16.4 0.625926 18.7624 1.22288 20.7438 2.41677C22.7381 3.61067 24.2683 5.28086 25.3352 7.42731C26.415 9.57381 26.9546 12.0696 26.9546 14.9146C26.9546 17.7596 26.415 20.2554 25.3352 22.4018C24.2683 24.5483 22.7381 26.2185 20.7438 27.4124C18.7624 28.6063 16.4 29.2032 13.6567 29.2032ZM13.6567 24.326C15.3964 24.3515 16.8443 23.9768 18.0003 23.202C19.1564 22.4273 20.0198 21.3286 20.5914 19.9061C21.1758 18.4836 21.4677 16.8197 21.4677 14.9146C21.4677 13.0094 21.1758 11.3583 20.5914 9.96117C20.0198 8.56408 19.1564 7.47814 18.0003 6.70337C16.8443 5.92861 15.3964 5.52852 13.6567 5.50312C11.9166 5.47772 10.4687 5.8524 9.31291 6.62716C8.15717 7.40193 7.28712 8.5006 6.70285 9.92307C6.13131 11.3456 5.84553 13.0094 5.84553 14.9146C5.84553 16.8197 6.13131 18.4709 6.70285 19.868C7.28712 21.2651 8.15717 22.3511 9.31291 23.1258C10.4687 23.9006 11.9166 24.3007 13.6567 24.326Z" fill="#161616"/>
</svg>
