<svg width="9" height="16" viewBox="0 0 9 16" fill="none" xmlns="http://www.w3.org/2000/svg">
<path d="M8.61914 7.50586L1.74414 0.630859C1.70117 0.602214 1.66178 0.577148 1.62598 0.555664C1.59017 0.53418 1.55078 0.509115 1.50781 0.480469C1.46484 0.466146 1.42188 0.455404 1.37891 0.448242C1.33594 0.441081 1.29297 0.4375 1.25 0.4375C1.20703 0.4375 1.16406 0.441081 1.12109 0.448242C1.07812 0.455404 1.03516 0.466146 0.992188 0.480469C0.949219 0.509115 0.909831 0.53418 0.874023 0.555664C0.838216 0.577148 0.798828 0.602214 0.755859 0.630859C0.727214 0.673828 0.702148 0.713216 0.680664 0.749023C0.65918 0.784831 0.634115 0.824219 0.605469 0.867188C0.591146 0.910156 0.580404 0.953125 0.573242 0.996094C0.566081 1.03906 0.5625 1.08203 0.5625 1.125C0.5625 1.16797 0.566081 1.21094 0.573242 1.25391C0.580404 1.29688 0.591146 1.33984 0.605469 1.38281C0.634115 1.42578 0.65918 1.46517 0.680664 1.50098C0.702148 1.53678 0.727214 1.57617 0.755859 1.61914L7.1582 8L0.755859 14.3809C0.698568 14.4525 0.652018 14.5312 0.616211 14.6172C0.580404 14.7031 0.5625 14.7891 0.5625 14.875C0.5625 14.9609 0.580404 15.0469 0.616211 15.1328C0.652018 15.2188 0.698568 15.2975 0.755859 15.3691C0.827474 15.4264 0.90625 15.473 0.992188 15.5088C1.07812 15.5446 1.16406 15.5625 1.25 15.5625C1.33594 15.5625 1.42188 15.5446 1.50781 15.5088C1.59375 15.473 1.67253 15.4264 1.74414 15.3691L8.61914 8.49414C8.64779 8.45117 8.67285 8.41178 8.69434 8.37598C8.71582 8.34017 8.74089 8.30078 8.76953 8.25781C8.78385 8.21484 8.7946 8.17188 8.80176 8.12891C8.80892 8.08594 8.8125 8.04297 8.8125 8C8.8125 7.95703 8.80892 7.91406 8.80176 7.87109C8.7946 7.82812 8.78385 7.78516 8.76953 7.74219C8.74089 7.69922 8.71582 7.65983 8.69434 7.62402C8.67285 7.58822 8.64779 7.54883 8.61914 7.50586Z" fill="#161616"/>
</svg>
