<svg width="20" height="22" viewBox="0 0 20 22" fill="none" xmlns="http://www.w3.org/2000/svg">
<path d="M19.5156 0.964844C19.4792 0.891927 19.4336 0.828125 19.3789 0.773438C19.3242 0.71875 19.2604 0.664062 19.1875 0.609375C19.1328 0.572917 19.0645 0.545573 18.9824 0.527344C18.9004 0.509115 18.8229 0.5 18.75 0.5H13.5C13.4271 0.5 13.3542 0.509115 13.2812 0.527344C13.2083 0.545573 13.1445 0.572917 13.0898 0.609375C13.0169 0.645833 12.9531 0.686849 12.8984 0.732422C12.8438 0.777995 12.7982 0.83724 12.7617 0.910156L8.33203 7.85547L1.90625 0.773438C1.8151 0.700521 1.7194 0.641276 1.61914 0.595703C1.51888 0.55013 1.41406 0.518229 1.30469 0.5C1.17708 0.5 1.05859 0.518229 0.949219 0.554688C0.839844 0.591146 0.748698 0.654948 0.675781 0.746094C0.584635 0.81901 0.516276 0.905599 0.470703 1.00586C0.42513 1.10612 0.393229 1.22005 0.375 1.34766C0.375 1.45703 0.393229 1.56641 0.429688 1.67578C0.466146 1.78516 0.520833 1.88542 0.59375 1.97656L7.34766 9.41406L0.511719 20.1602C0.47526 20.2148 0.443359 20.2832 0.416016 20.3652C0.388672 20.4473 0.375 20.5247 0.375 20.5977C0.375 20.6706 0.384115 20.748 0.402344 20.8301C0.420573 20.9121 0.447917 20.9805 0.484375 21.0352C0.520833 21.1081 0.566406 21.1719 0.621094 21.2266C0.675781 21.2812 0.739583 21.3359 0.8125 21.3906C0.867188 21.4271 0.935547 21.4544 1.01758 21.4727C1.09961 21.4909 1.17708 21.5 1.25 21.5H6.5C6.57292 21.5 6.64583 21.4909 6.71875 21.4727C6.79167 21.4544 6.85547 21.4271 6.91016 21.3906C6.98307 21.3542 7.04688 21.3132 7.10156 21.2676C7.15625 21.222 7.20182 21.1628 7.23828 21.0898L11.668 14.1445L18.0938 21.2266C18.1849 21.2995 18.2806 21.3587 18.3809 21.4043C18.4811 21.4499 18.5859 21.4818 18.6953 21.5C18.8229 21.5 18.9414 21.4818 19.0508 21.4453C19.1602 21.4089 19.2513 21.3451 19.3242 21.2539C19.4154 21.181 19.4837 21.0944 19.5293 20.9941C19.5749 20.8939 19.6068 20.7799 19.625 20.6523C19.625 20.543 19.6068 20.4336 19.5703 20.3242C19.5339 20.2148 19.4792 20.1146 19.4062 20.0234L12.6523 12.6133L19.4883 1.83984C19.5247 1.78516 19.5566 1.7168 19.584 1.63477C19.6113 1.55273 19.625 1.47526 19.625 1.40234C19.625 1.32943 19.6159 1.25195 19.5977 1.16992C19.5794 1.08789 19.5521 1.01953 19.5156 0.964844Z" fill="#161616"/>
</svg>
